<?xml version="1.0" standalone="no"?>
<!DOCTYPE svg PUBLIC "-//W3C//DTD SVG 20010904//EN"
 "http://www.w3.org/TR/2001/REC-SVG-20010904/DTD/svg10.dtd">
<svg version="1.0" xmlns="http://www.w3.org/2000/svg"
 width="227.000000pt" height="227.000000pt" viewBox="0 0 227.000000 227.000000"
 preserveAspectRatio="xMidYMid meet">
<metadata>
Created by potrace 1.11, written by Peter Selinger 2001-2013
</metadata>
<g transform="translate(0.000000,227.000000) scale(0.100000,-0.100000)"
fill="#000000" stroke="none">
<path d="M990 2263 c-276 -46 -495 -157 -671 -340 -216 -225 -322 -497 -314
-808 4 -147 8 -178 40 -290 111 -381 419 -678 813 -782 82 -21 121 -26 247
-27 172 -1 225 5 344 39 353 102 644 387 760 743 16 48 32 112 36 142 4 30 9
64 11 75 7 35 7 188 0 245 -18 143 -55 266 -118 390 -134 263 -360 460 -641
559 -48 17 -89 30 -92 30 -5 0 -28 4 -85 17 -31 7 -296 13 -330 7z m390 -136
c464 -122 779 -539 765 -1012 -3 -109 -5 -123 -26 -220 -35 -152 -137 -339
-250 -455 -217 -223 -487 -331 -789 -317 -447 22 -820 327 -938 766 -34 127
-37 353 -8 471 99 394 377 675 760 770 98 24 127 27 251 25 112 -2 159 -8 235
-28z"/>
<path d="M1585 1666 c-103 -46 -149 -175 -98 -272 l21 -40 -107 -196 c-137
-254 -129 -252 -242 -81 -65 98 -79 126 -70 137 18 21 25 106 12 151 -21 77
-99 135 -184 137 -111 2 -201 -85 -200 -195 1 -27 4 -51 7 -55 4 -3 -23 -36
-60 -73 l-67 -67 -52 5 c-192 20 -298 -197 -165 -336 69 -72 216 -69 281 5 43
49 63 124 47 179 -7 27 -3 34 55 93 61 61 63 63 102 56 22 -4 51 -7 65 -6 21
1 36 -16 104 -118 l78 -119 -17 -45 c-33 -86 -3 -177 76 -231 81 -57 211 -32
268 50 43 63 47 150 11 210 -19 30 -19 30 14 90 18 33 63 119 101 190 37 72
72 135 76 140 4 6 22 12 39 13 148 11 228 184 143 306 -52 74 -159 107 -238
72z"/>
</g>
</svg>
