<?xml version="1.0" standalone="no"?>
<!DOCTYPE svg PUBLIC "-//W3C//DTD SVG 20010904//EN"
 "http://www.w3.org/TR/2001/REC-SVG-20010904/DTD/svg10.dtd">
<svg version="1.0" xmlns="http://www.w3.org/2000/svg"
 width="296.000000pt" height="296.000000pt" viewBox="0 0 296.000000 296.000000"
 preserveAspectRatio="xMidYMid meet">
<metadata>
Created by potrace 1.11, written by Peter Selinger 2001-2013
</metadata>
<g transform="translate(0.000000,296.000000) scale(0.100000,-0.100000)"
fill="#000000" stroke="none">
<path d="M1345 2953 c-11 -3 -26 -10 -34 -17 -11 -8 -13 -8 -8 0 4 8 -2 11
-18 10 -29 -1 -32 -11 -7 -25 9 -6 13 -11 8 -11 -5 0 -17 7 -26 15 -14 13 -25
14 -71 4 -30 -7 -60 -12 -66 -12 -7 0 -13 -4 -13 -9 0 -4 -6 -7 -12 -5 -7 1
-12 -4 -10 -11 2 -10 -2 -10 -17 0 -15 9 -24 8 -45 -6 -15 -9 -32 -14 -38 -10
-7 5 -9 2 -5 -9 3 -9 1 -19 -5 -23 -6 -4 -8 -3 -4 4 3 6 2 13 -4 17 -5 3 -10
2 -10 -4 0 -6 -7 -8 -15 -5 -18 7 -20 -7 -2 -26 7 -9 4 -8 -8 2 -19 15 -25 14
-92 -18 -59 -27 -72 -36 -67 -51 4 -14 4 -15 -4 -4 -8 11 -20 7 -66 -20 -31
-19 -56 -37 -56 -41 0 -5 -4 -8 -10 -8 -13 0 -110 -70 -110 -79 0 -4 6 -13 12
-21 11 -12 10 -12 -6 0 -16 13 -20 12 -32 -5 -8 -10 -14 -15 -14 -10 0 5 -30
-23 -67 -62 -96 -101 -105 -114 -92 -129 8 -9 5 -11 -9 -8 -14 4 -29 -11 -63
-63 -75 -112 -110 -181 -96 -186 6 -3 4 -6 -7 -6 -11 -1 -16 -6 -13 -15 3 -8
-1 -17 -10 -20 -9 -4 -13 -9 -9 -13 3 -3 -1 -17 -9 -30 -15 -23 -12 -49 5 -38
4 3 14 -3 21 -12 12 -15 12 -16 -1 -8 -27 17 -53 17 -46 0 3 -8 1 -15 -5 -15
-6 0 -9 -7 -5 -15 3 -8 2 -15 -3 -15 -10 0 -43 -119 -36 -131 4 -5 10 -7 14
-5 4 3 8 -1 8 -9 0 -11 -4 -12 -13 -4 -26 21 -37 -50 -11 -78 14 -16 14 -20 2
-20 -8 0 -12 4 -9 8 2 4 0 10 -5 13 -5 3 -11 -3 -14 -14 -3 -11 0 -20 6 -20 7
0 7 -4 -2 -9 -8 -5 -12 -19 -9 -35 3 -14 2 -26 -1 -26 -3 0 -7 -29 -7 -65 -1
-59 0 -64 15 -53 14 12 15 11 1 -6 -16 -20 -24 -90 -10 -81 5 3 12 1 15 -5 4
-6 1 -9 -6 -8 -7 2 -13 -5 -12 -14 0 -10 1 -34 2 -54 1 -25 5 -33 14 -28 9 5
9 4 1 -5 -8 -8 -8 -27 -3 -59 14 -73 16 -77 37 -61 16 13 16 13 0 -7 -16 -19
-15 -70 1 -59 4 2 8 -2 8 -10 0 -8 -4 -12 -8 -10 -6 5 8 -42 48 -153 11 -32
19 -42 30 -37 12 4 13 2 5 -8 -9 -10 -6 -24 10 -58 12 -24 26 -45 30 -47 4 -2
8 -10 8 -18 0 -8 4 -14 8 -14 5 0 9 -6 9 -13 0 -18 54 -97 63 -92 4 3 7 -3 6
-13 0 -9 5 -16 12 -14 8 1 11 -2 7 -7 -7 -12 25 -52 37 -45 4 3 6 -1 3 -8 -2
-7 27 -47 66 -88 40 -41 69 -67 65 -57 -3 11 -2 16 4 12 6 -3 10 -12 10 -19 0
-12 35 -48 99 -99 12 -10 27 -15 33 -11 7 4 8 3 4 -5 -4 -6 0 -14 11 -18 10
-4 20 -9 23 -13 13 -16 84 -59 92 -54 4 3 8 0 8 -5 0 -6 7 -11 15 -11 8 0 15
-4 15 -8 0 -9 109 -58 122 -54 4 1 8 -2 8 -6 0 -7 29 -19 90 -37 3 -1 18 -7
33 -13 15 -7 31 -11 35 -10 4 1 20 -4 36 -11 16 -6 38 -9 49 -5 13 4 17 2 13
-5 -5 -7 3 -11 21 -12 15 -1 37 -3 48 -5 11 -2 40 -6 65 -8 25 -3 45 -5 45 -6
0 -1 10 -3 23 -6 16 -3 21 0 16 8 -5 7 -3 8 7 2 22 -14 70 -14 62 -1 -5 8 -2
8 8 0 23 -18 131 -13 124 6 -4 10 -2 11 7 4 15 -12 108 -14 108 -2 0 16 -21
20 -38 8 -16 -12 -16 -12 0 6 17 18 18 18 37 1 13 -12 27 -15 47 -11 54 12 57
14 45 28 -8 10 -7 14 4 14 8 0 12 -4 9 -8 -2 -4 0 -10 5 -14 13 -7 62 5 57 14
-3 4 5 7 17 7 42 0 99 17 104 30 3 8 9 11 15 8 11 -7 70 15 64 25 -2 3 7 7 20
7 13 1 40 12 61 25 21 13 42 23 47 21 5 -2 6 3 4 10 -4 8 3 14 17 14 21 2 121
62 160 97 25 22 26 36 6 62 -16 20 -16 20 6 1 13 -10 20 -23 17 -27 -11 -18 8
-8 41 22 19 18 32 36 28 42 -3 6 -1 7 6 3 14 -9 43 12 35 25 -3 5 0 9 7 9 6 0
22 11 35 25 13 14 20 25 17 25 -4 0 2 6 12 14 17 12 18 16 5 32 -12 16 -12 17
0 7 8 -7 17 -13 21 -13 9 0 79 97 79 110 0 6 4 10 9 10 16 0 22 32 9 49 -11
14 -11 14 4 3 15 -12 20 -9 43 28 14 22 23 45 20 50 -4 6 -1 10 5 10 12 0 71
123 73 152 1 10 4 18 7 18 4 0 12 16 18 36 8 27 8 33 -2 27 -6 -4 -3 0 7 9 40
37 -5 62 -50 28 -17 -13 -17 -13 0 6 10 10 30 19 45 20 15 0 26 6 24 12 -1 7
2 12 6 12 5 0 9 6 9 13 0 6 3 26 7 42 3 17 8 40 10 53 3 12 8 27 11 32 3 6 2
10 -2 10 -5 0 -9 9 -9 19 0 11 4 17 8 15 4 -3 8 10 9 28 0 18 3 70 5 116 4 60
2 88 -8 100 -8 10 -9 13 -1 9 8 -5 11 1 9 20 -3 24 -8 28 -34 28 -17 0 -33 3
-36 6 -4 3 6 5 21 4 42 -3 50 3 45 35 -3 19 -8 27 -16 23 -6 -4 -5 1 3 10 7 9
10 17 5 17 -5 0 -10 17 -10 39 -1 21 -4 46 -8 56 -5 15 -9 15 -24 4 -16 -13
-16 -12 -1 6 9 11 15 27 13 35 -17 80 -26 110 -35 110 -5 0 -6 7 -3 15 4 8 1
15 -6 15 -6 0 -9 4 -5 10 8 13 -39 122 -50 113 -4 -5 -6 -1 -2 8 6 19 -26 72
-38 62 -4 -5 -5 -3 -1 4 8 14 -14 64 -25 57 -5 -3 -6 2 -3 10 3 9 1 16 -5 16
-6 0 -11 7 -11 16 0 11 -6 15 -18 12 -11 -3 -19 0 -19 7 0 7 7 11 16 8 13 -4
13 -2 -1 10 -10 8 -18 18 -18 23 0 5 -9 17 -20 27 -11 9 -20 24 -20 32 0 18
-11 19 -30 3 -12 -11 -12 -10 -1 4 11 15 9 22 -11 47 -16 21 -29 28 -43 25
-16 -4 -17 -3 -6 5 12 8 6 18 -32 56 -26 25 -52 43 -57 40 -5 -3 -8 0 -5 7 2
7 -12 25 -32 40 -30 23 -39 26 -52 15 -14 -10 -14 -10 -3 4 10 13 9 19 -3 29
-8 7 -22 10 -30 6 -10 -3 -13 -2 -10 5 9 13 -26 40 -43 34 -7 -3 -10 0 -7 6 4
6 -2 13 -14 16 -12 3 -21 10 -21 15 0 6 -8 7 -17 4 -10 -4 -14 -4 -10 0 13 13
-204 120 -260 128 -7 1 -16 5 -19 9 -4 4 -18 7 -31 7 -12 0 -23 5 -23 11 0 7
-10 9 -25 7 -14 -3 -25 -1 -25 6 0 6 -5 4 -10 -4 -5 -8 -10 -10 -10 -3 0 12
-64 30 -139 38 -24 3 -48 8 -52 11 -5 3 -9 0 -9 -6 0 -6 -4 -8 -10 -5 -5 3
-26 8 -46 11 -31 4 -35 2 -30 -13 6 -17 5 -17 -7 -1 -11 14 -16 15 -27 5 -10
-9 -11 -9 -6 1 9 15 -29 13 -53 -2 -9 -6 -12 -5 -8 1 9 14 -44 14 -62 -1 -12
-8 -13 -8 -7 2 4 6 6 11 4 11 -2 -1 -12 -4 -23 -6z m81 -29 c10 -2 25 3 34 9
13 10 13 10 1 -5 -19 -25 -71 -13 -71 15 0 8 4 7 9 -2 5 -8 17 -16 27 -17z
m149 16 c-3 -5 -12 -10 -18 -10 -7 0 -6 4 3 10 19 12 23 12 15 0z m75 -3 c0
-2 -8 -11 -18 -20 -15 -14 -19 -15 -19 -2 0 8 4 12 8 9 4 -2 10 0 14 6 6 10
15 14 15 7z m-402 -28 c9 -12 9 -16 -1 -16 -7 0 -14 9 -14 20 -1 11 -1 18 0
16 2 -2 8 -11 15 -20z m102 15 c0 -8 -19 -13 -24 -6 -3 5 1 9 9 9 8 0 15 -2
15 -3z m141 -7 c-6 -8 -9 -16 -6 -19 3 -2 -2 -5 -10 -5 -13 0 -13 3 2 19 19
21 31 25 14 5z m33 4 c3 -5 -2 -15 -12 -22 -15 -12 -16 -12 -5 2 7 9 10 19 6
22 -3 4 -4 7 0 7 3 0 8 -4 11 -9z m203 2 c-4 -3 -2 -11 3 -18 7 -8 5 -12 -4
-12 -8 0 -12 7 -11 16 5 22 4 21 12 21 3 0 3 -3 0 -7z m39 -21 c-3 -3 2 -15
11 -26 14 -15 14 -18 2 -8 -9 6 -18 10 -20 7 -3 -2 -5 6 -5 20 0 13 4 21 9 18
4 -3 6 -8 3 -11z m-550 -4 c3 -4 -1 -5 -10 -4 -8 1 -18 5 -22 8 -3 4 1 5 10 4
8 -1 18 -5 22 -8z m444 8 c0 -2 -8 -10 -17 -17 -16 -13 -17 -12 -4 4 13 16 21
21 21 13z m35 -6 c3 -6 -1 -7 -9 -4 -18 7 -21 14 -7 14 6 0 13 -4 16 -10z
m137 -15 c10 2 20 0 23 -4 10 -17 -46 -4 -63 14 -16 19 -16 19 3 3 11 -8 28
-14 37 -13z m-286 0 c-1 -8 -5 -17 -8 -21 -5 -4 -4 16 1 34 3 9 9 -1 7 -13z
m-481 -4 c3 -5 2 -12 -3 -15 -5 -3 -9 1 -9 9 0 17 3 19 12 6z m106 -18 c13
-16 12 -17 -3 -4 -10 7 -18 15 -18 17 0 8 8 3 21 -13z m31 0 c-1 -4 7 -17 16
-28 17 -20 17 -20 -4 -2 -11 9 -21 24 -21 32 0 8 2 13 5 11 2 -2 4 -8 4 -13z
m125 2 c0 -8 -10 -23 -21 -32 -21 -18 -21 -18 -2 5 11 12 16 22 12 22 -4 0 -4
5 -1 10 9 14 12 13 12 -5z m80 0 c0 -8 -10 -23 -21 -32 -21 -18 -21 -18 -2 5
11 12 16 22 12 22 -4 0 -4 5 -1 10 9 14 12 13 12 -5z m43 11 c0 -2 -8 -10 -17
-17 -16 -13 -17 -12 -4 4 13 16 21 21 21 13z m437 -11 c0 -8 -10 -23 -21 -32
-21 -18 -21 -18 -2 5 11 12 16 22 12 22 -4 0 -4 5 -1 10 9 14 12 13 12 -5z
m-802 -15 c-10 -11 -20 -18 -23 -15 -3 3 -15 -3 -26 -12 -21 -18 -21 -18 -2 4
10 13 22 20 26 18 4 -3 13 2 20 10 7 8 15 15 18 15 3 0 -3 -9 -13 -20z m160
12 c-3 -3 0 -11 6 -19 17 -20 5 -16 -14 5 -15 16 -15 19 -2 19 8 0 13 -3 10
-5z m45 -6 c-7 -7 -13 -7 -20 0 -6 6 -3 10 10 10 13 0 16 -4 10 -10z m85 5
c-9 -8 -36 -10 -30 -2 2 4 11 8 20 8 8 0 13 -3 10 -6z m190 -11 c-10 -11 -20
-18 -23 -15 -3 3 -15 -3 -26 -12 -21 -18 -21 -18 -2 4 10 13 22 20 26 18 4 -3
13 2 20 10 7 8 15 15 18 15 3 0 -3 -9 -13 -20z m97 -5 c3 3 13 -5 24 -17 19
-23 19 -23 -2 -5 -11 9 -23 15 -26 12 -3 -3 -13 5 -24 17 -19 23 -19 23 2 5
11 -9 23 -15 26 -12z m-645 -3 c-10 -10 -15 -21 -12 -24 3 -3 -5 -13 -17 -24
l-23 -19 19 23 c11 12 15 22 11 22 -4 0 0 9 10 20 10 11 20 20 23 20 3 0 -2
-8 -11 -18z m139 -4 c12 -14 13 -18 3 -10 -9 6 -18 10 -21 7 -2 -3 -5 2 -5 10
0 19 0 19 23 -7z m343 6 c-7 -9 -14 -23 -15 -31 -2 -8 -5 -18 -8 -21 -4 -3 -5
4 -3 15 3 20 24 53 34 53 3 0 -1 -7 -8 -16z m227 -54 c1 -23 -1 -38 -4 -35 -3
3 -6 20 -7 39 0 18 -7 42 -15 52 -13 18 -13 18 5 2 12 -11 20 -33 21 -58z
m105 53 c13 -16 12 -17 -3 -4 -10 7 -18 15 -18 17 0 8 8 3 21 -13z m117 -8
c-3 -3 -9 2 -12 12 -6 14 -5 15 5 6 7 -7 10 -15 7 -18z m-145 -3 c15 -16 15
-19 2 -19 -8 0 -13 3 -10 5 3 3 0 11 -6 19 -17 20 -5 16 14 -5z m-602 -19 c13
-16 12 -17 -3 -4 -10 7 -18 15 -18 17 0 8 8 3 21 -13z m249 2 c-10 -12 -10
-18 1 -32 12 -17 12 -17 -6 -1 -15 14 -16 20 -5 32 7 9 15 16 17 16 3 0 0 -7
-7 -15z m326 3 c3 -4 -1 -5 -10 -4 -8 1 -18 5 -22 8 -3 4 1 5 10 4 8 -1 18 -5
22 -8z m-710 -13 c-1 -8 -5 -17 -8 -21 -5 -4 -4 16 1 34 3 9 9 -1 7 -13z m96
0 c3 3 11 -3 19 -12 12 -16 12 -17 -2 -6 -9 7 -18 11 -21 8 -3 -3 -11 3 -19
12 -12 16 -12 17 2 6 9 -7 18 -11 21 -8z m109 -2 c13 -16 12 -17 -3 -4 -10 7
-18 15 -18 17 0 8 8 3 21 -13z m395 -9 c1 -9 0 -13 -4 -10 -3 4 -7 14 -8 22
-1 9 0 13 4 10 3 -4 7 -14 8 -22z m276 14 c-13 -13 -104 -20 -97 -8 2 4 23 6
45 5 22 -1 43 2 46 7 3 4 8 8 12 8 3 0 0 -6 -6 -12z m99 -15 c17 -20 18 -23 3
-10 -11 9 -23 15 -26 12 -2 -3 -5 2 -5 10 0 19 -1 20 28 -12z m-1086 6 c3 -3
-13 -5 -35 -4 -22 1 -43 4 -46 7 -3 3 13 5 35 4 22 -1 43 -4 46 -7z m171 -13
c1 -7 -4 -13 -12 -13 -9 0 -11 4 -4 12 5 7 8 15 5 18 -3 4 -2 5 2 2 4 -3 8
-11 9 -19z m120 2 c14 -17 15 -20 2 -9 -9 7 -22 10 -27 6 -7 -3 -8 0 -5 9 8
20 7 20 30 -6z m710 -6 c-17 -16 -18 -16 -5 5 7 12 15 20 18 17 3 -2 -3 -12
-13 -22z m-425 1 c13 -16 12 -17 -3 -4 -10 7 -18 15 -18 17 0 8 8 3 21 -13z
m558 4 c8 -10 7 -14 -2 -14 -8 0 -14 6 -14 14 0 7 1 13 2 13 2 0 8 -6 14 -13z
m-1278 -10 c-6 -8 -9 -16 -6 -19 3 -3 -3 -11 -12 -19 -16 -13 -17 -12 -4 4 7
9 10 17 6 17 -4 0 -2 7 5 15 7 8 15 15 17 15 3 0 0 -6 -6 -13z m49 8 c0 -1
-10 -10 -22 -21 -14 -12 -18 -13 -10 -3 6 9 10 18 7 21 -3 2 2 5 10 5 8 0 15
-1 15 -2z m147 -13 c-17 -18 -51 -27 -41 -10 3 5 9 6 14 3 4 -3 13 2 20 10 7
8 15 15 18 15 3 0 -2 -8 -11 -18z m288 8 c-3 -5 -12 -10 -18 -10 -7 0 -6 4 3
10 19 12 23 12 15 0z m35 -4 c-18 -18 -11 -23 28 -20 20 2 61 3 90 3 40 1 51
4 46 14 -6 10 -4 10 7 0 7 -7 24 -13 37 -13 16 0 21 4 16 13 -4 6 1 4 12 -5
16 -14 23 -15 32 -6 9 9 12 9 12 -1 0 -9 13 -12 44 -10 24 2 42 0 39 -5 -3 -5
8 -7 26 -4 17 2 28 2 26 -1 -11 -10 180 -58 193 -48 9 7 11 5 5 -8 -5 -14 -3
-17 10 -12 9 3 17 3 17 -2 0 -4 30 -22 68 -40 37 -18 83 -41 102 -51 19 -10
38 -16 43 -13 4 2 6 -1 5 -9 -2 -7 5 -12 14 -12 10 1 16 -2 13 -6 -7 -11 76
-71 88 -63 6 3 7 2 4 -4 -8 -12 31 -46 44 -37 7 4 6 10 0 18 -8 9 -7 13 4 13
8 0 13 -3 10 -5 -3 -3 1 -12 8 -20 8 -11 8 -14 0 -9 -14 9 -27 -9 -17 -24 5
-8 9 -8 14 1 5 8 10 2 14 -15 5 -18 12 -25 21 -21 8 3 17 0 21 -6 4 -7 3 -8
-4 -4 -7 4 -12 4 -12 -1 0 -11 62 -68 72 -66 4 2 5 -3 3 -10 -6 -15 49 -79 59
-70 4 4 4 0 0 -10 -4 -12 -1 -17 12 -17 16 0 17 -2 4 -10 -10 -6 -11 -10 -2
-10 6 0 12 -7 12 -15 0 -8 5 -15 10 -15 6 0 10 -7 10 -15 0 -8 5 -15 12 -15 6
0 8 -3 5 -6 -4 -4 4 -28 17 -53 36 -69 62 -131 76 -181 6 -25 15 -49 19 -55 4
-5 8 -26 10 -45 2 -19 6 -37 10 -40 3 -3 8 -30 10 -60 1 -30 8 -61 13 -67 7
-9 6 -13 -3 -13 -12 0 -12 -2 0 -9 8 -5 9 -11 3 -15 -6 -3 -8 -14 -5 -25 4
-15 13 -18 49 -16 24 2 44 0 44 -4 0 -4 -19 -7 -42 -7 -35 1 -43 -3 -47 -19
-3 -18 -2 -18 15 -5 18 14 18 14 4 -3 -16 -21 -17 -28 -23 -109 -4 -58 0 -67
19 -48 7 7 11 6 11 -4 0 -8 -3 -13 -7 -11 -4 2 -16 -2 -26 -10 -15 -11 -16
-14 -4 -15 11 0 12 -2 2 -8 -6 -5 -13 -27 -15 -50 -1 -23 -5 -42 -8 -42 -3 0
-6 -6 -7 -12 -1 -20 -9 -49 -26 -97 -8 -25 -13 -48 -10 -53 3 -4 1 -8 -3 -8
-12 0 -34 -61 -26 -73 3 -6 1 -7 -5 -3 -11 6 -16 -6 -13 -26 0 -5 -4 -8 -10
-8 -6 0 -8 -7 -5 -16 3 -8 2 -12 -4 -9 -9 6 -12 2 -14 -27 -1 -7 -9 -19 -19
-26 -9 -7 -15 -18 -11 -23 4 -6 15 -3 27 8 15 12 18 13 9 2 -6 -9 -8 -20 -4
-25 4 -5 3 -6 -2 -2 -5 4 -16 2 -24 -5 -13 -9 -14 -9 -8 0 4 7 2 13 -3 13 -6
0 -11 -3 -11 -7 0 -5 -18 -32 -40 -60 -22 -29 -38 -53 -36 -53 2 0 -16 -20
-40 -45 -24 -24 -44 -50 -44 -56 0 -7 -2 -10 -5 -7 -3 3 -18 -6 -33 -21 -76
-73 -239 -191 -264 -191 -6 0 -8 -6 -5 -13 3 -8 -1 -14 -9 -14 -7 0 -11 4 -8
9 3 4 -2 5 -11 2 -9 -4 -14 -13 -10 -22 4 -12 3 -13 -10 -2 -13 11 -19 7 -17
-11 1 -4 -8 -5 -18 -2 -11 3 -20 0 -20 -6 0 -6 -3 -10 -7 -9 -5 1 -43 -9 -85
-22 -59 -19 -76 -29 -72 -40 4 -12 3 -13 -7 -3 -15 15 -33 17 -24 4 3 -5 1
-13 -5 -16 -6 -4 -9 -1 -8 7 2 7 -4 11 -12 9 -8 -2 -22 -5 -30 -6 -8 -2 -17
-4 -20 -5 -3 -1 -15 -1 -27 0 -13 1 -23 -3 -23 -8 0 -4 -13 -7 -30 -4 -18 3
-30 0 -30 -7 0 -6 -5 -11 -11 -11 -5 0 -7 6 -3 13 6 9 4 9 -8 -1 -11 -9 -18
-10 -23 -2 -3 6 -11 8 -16 4 -5 -3 -6 -11 -2 -17 5 -9 3 -9 -8 -1 -19 14 -135
12 -132 -2 1 -6 -5 -11 -12 -11 -11 0 -12 4 -4 14 6 7 8 13 3 14 -5 0 -17 2
-26 4 -10 2 -18 -2 -18 -8 0 -9 -3 -8 -8 0 -5 7 -31 14 -60 15 -29 1 -52 6
-52 10 0 4 -5 8 -11 8 -5 0 -7 -5 -3 -11 3 -6 -5 -3 -20 6 -23 15 -30 14 -28
-6 1 -4 -9 -15 -21 -25 -21 -18 -21 -18 -7 0 8 10 15 24 16 31 2 15 -23 28
-37 19 -5 -3 -9 0 -9 5 0 6 -3 10 -7 9 -5 0 -17 2 -28 6 -77 30 -95 35 -95 30
0 -3 -7 2 -16 10 -8 9 -20 14 -25 11 -5 -4 -9 -2 -9 3 0 9 -37 25 -52 23 -5
-1 -8 4 -8 10 0 5 -4 7 -10 4 -5 -3 -10 -1 -10 5 0 7 -7 10 -15 7 -8 -4 -17
-1 -21 5 -5 7 -2 8 7 4 8 -4 5 0 -6 8 -11 9 -25 14 -32 12 -7 -3 -12 -1 -10 3
1 5 -29 33 -68 62 -38 29 -76 59 -83 66 -8 7 -18 11 -23 7 -5 -3 -8 -2 -7 3 2
4 -5 19 -14 32 -12 17 -22 22 -35 17 -14 -6 -15 -4 -6 4 8 9 6 18 -9 36 -12
13 -25 21 -30 18 -5 -3 -8 -2 -7 3 3 20 -2 34 -11 28 -5 -3 -10 0 -10 7 0 18
-45 69 -54 61 -4 -4 -4 0 0 10 3 10 1 17 -6 17 -6 0 -9 4 -6 8 3 5 -2 18 -12
28 -9 11 -33 51 -52 89 -38 76 -48 87 -69 80 -11 -5 -12 -3 -1 10 11 13 15 13
21 3 13 -19 11 -3 -2 26 -7 14 -15 23 -19 21 -4 -2 -5 6 -3 19 3 13 0 27 -6
30 -6 4 -11 16 -11 26 0 10 -5 31 -12 47 -6 15 -10 36 -9 46 1 9 -1 17 -6 17
-4 0 -9 26 -11 57 -1 32 -8 61 -15 65 -8 5 -9 8 0 8 6 0 10 8 8 18 -2 9 -4 21
-4 26 -1 5 -7 3 -14 -3 -10 -8 -14 -7 -14 4 0 7 5 13 11 12 6 -1 12 13 14 32
3 25 0 32 -10 28 -9 -3 -14 2 -14 14 0 14 3 15 14 7 10 -9 12 -6 10 13 -2 13
-7 30 -12 38 -6 9 -5 12 2 7 6 -3 13 -2 17 4 3 5 1 10 -6 10 -8 0 -9 3 0 13
13 16 3 30 -14 19 -6 -4 -2 1 8 11 13 11 18 26 15 42 -3 14 -1 25 4 25 5 0 9
10 8 23 -1 12 -1 24 0 27 2 6 8 37 12 65 2 11 7 26 12 33 5 8 1 22 -10 35 -10
12 -12 16 -4 10 21 -19 27 -16 35 20 4 17 8 34 9 37 1 3 4 10 7 15 4 6 12 28
19 50 7 22 16 42 19 45 11 9 33 52 23 46 -5 -3 -9 1 -9 8 0 8 5 12 12 10 11
-4 49 59 50 83 0 6 4 15 9 20 5 4 6 3 2 -4 -16 -29 3 -10 33 32 28 40 31 48
19 63 -11 15 -11 15 2 5 12 -9 26 1 76 52 47 47 59 66 50 75 -8 8 -7 10 5 5
15 -6 48 17 106 72 7 6 28 21 48 33 19 12 35 27 35 32 0 6 3 9 6 6 3 -4 33 10
67 29 34 19 77 41 95 49 23 9 31 18 26 26 -6 10 -4 10 8 0 14 -11 18 -11 25 0
4 7 17 14 28 16 11 1 27 4 35 7 8 2 19 4 23 4 5 1 5 6 1 13 -4 7 -3 8 5 4 7
-5 24 -5 37 -2 23 6 24 9 13 24 -12 15 -12 15 7 -1 11 -9 23 -15 25 -12 6 6
46 13 77 14 13 1 20 5 17 11 -3 6 -1 10 4 10 6 0 11 -6 11 -12 1 -8 7 -5 15 6
8 10 12 22 10 26 -2 4 3 7 11 7 10 0 11 -4 4 -11z m50 8 c0 -8 -19 -13 -24 -6
-3 5 1 9 9 9 8 0 15 -2 15 -3z m261 -11 c13 -16 12 -17 -3 -4 -10 7 -18 15
-18 17 0 8 8 3 21 -13z m524 8 c3 -5 2 -12 -3 -15 -5 -3 -9 1 -9 9 0 17 3 19
12 6z m-1240 -39 c-3 -3 3 -15 12 -26 18 -21 18 -21 -5 -2 -12 11 -20 21 -17
24 3 3 -3 15 -12 26 -18 21 -18 21 5 2 12 -11 20 -21 17 -24z m165 35 c0 -2
-8 -11 -18 -20 -15 -14 -19 -15 -19 -2 0 8 4 12 8 9 4 -2 10 0 14 6 6 10 15
14 15 7z m75 -7 c4 -6 10 -8 14 -6 4 3 8 -1 8 -9 0 -12 -4 -12 -21 2 -12 10
-23 19 -25 20 -2 2 1 3 7 3 6 0 14 -5 17 -10z m639 -19 c-2 -3 -12 3 -22 13
-16 17 -16 18 5 5 12 -7 20 -15 17 -18z m94 12 c-9 -10 -14 -25 -13 -34 2 -9
-3 -16 -11 -16 -10 0 -11 4 -3 14 6 7 8 13 4 13 -5 0 0 9 10 20 10 11 20 20
23 20 3 0 -2 -8 -10 -17z m89 2 c0 -8 -3 -13 -5 -10 -3 3 -12 -1 -21 -7 -10
-8 -9 -4 3 10 23 26 23 26 23 7z m49 -7 c12 -14 13 -18 3 -10 -9 6 -18 10 -21
7 -2 -3 -5 2 -5 10 0 19 0 19 23 -7z m-1156 8 c0 -2 -8 -10 -17 -17 -16 -13
-17 -12 -4 4 13 16 21 21 21 13z m360 -2 c0 -8 -19 -13 -24 -6 -3 5 1 9 9 9 8
0 15 -2 15 -3z m-346 -22 c3 -5 -1 -9 -9 -9 -8 0 -12 4 -9 9 3 4 7 8 9 8 2 0
6 -4 9 -8z m192 -11 c-10 -10 -25 -18 -34 -16 -9 1 -24 -3 -32 -9 -13 -9 -13
-9 -2 6 7 9 22 15 32 13 10 -2 24 3 31 11 6 8 14 14 17 14 3 0 -3 -9 -12 -19z
m769 10 c-9 -8 -36 -10 -30 -2 2 4 11 8 20 8 8 0 13 -3 10 -6z m80 0 c-9 -8
-36 -10 -30 -2 2 4 11 8 20 8 8 0 13 -3 10 -6z m-1110 -11 c-3 -5 -12 -10 -18
-10 -7 0 -6 4 3 10 19 12 23 12 15 0z m1157 -2 c-14 -14 -44 -20 -36 -7 3 5 9
7 14 4 5 -3 11 -1 15 5 3 5 9 10 13 10 3 0 1 -5 -6 -12z m221 -2 c3 3 4 -2 2
-13 -1 -10 5 -27 14 -38 16 -20 16 -20 -7 -1 -12 11 -20 21 -17 24 3 3 -3 15
-12 26 -14 15 -14 18 -2 8 9 -6 18 -9 22 -6z m-1496 -11 c0 -8 -4 -12 -9 -9
-5 3 -6 10 -3 15 9 13 12 11 12 -6z m154 -2 c12 -16 12 -17 -2 -6 -9 7 -20 9
-24 5 -5 -4 -5 -1 -1 6 9 16 11 15 27 -5z m1266 -8 c0 -8 -10 -23 -21 -32 -21
-18 -21 -18 -2 5 11 12 16 22 12 22 -4 0 -4 5 -1 10 9 14 12 13 12 -5z m-1362
-3 c-3 -3 0 -11 6 -19 17 -20 5 -16 -14 5 -15 16 -15 19 -2 19 8 0 13 -3 10
-5z m51 -4 c3 -4 -1 -5 -10 -4 -8 1 -18 5 -22 8 -3 4 1 5 10 4 8 -1 18 -5 22
-8z m126 -12 c3 3 8 1 12 -4 11 -18 -25 -8 -41 12 -18 21 -18 21 3 3 11 -9 23
-14 26 -11z m1073 15 c-9 -8 -36 -10 -30 -2 2 4 11 8 20 8 8 0 13 -3 10 -6z
m159 1 c2 -4 -4 -8 -14 -8 -10 0 -16 4 -14 8 3 4 9 8 14 8 5 0 11 -4 14 -8z
m67 -9 c13 -16 12 -17 -3 -4 -17 13 -22 21 -14 21 2 0 10 -8 17 -17z m-1379
-8 c2 3 5 -2 5 -10 0 -19 0 -19 -23 7 -12 14 -13 18 -3 10 9 -6 18 -10 21 -7z
m1209 -2 c13 -16 12 -17 -3 -4 -17 13 -22 21 -14 21 2 0 10 -8 17 -17z m-1330
-10 c13 -16 12 -17 -3 -4 -10 7 -18 15 -18 17 0 8 8 3 21 -13z m1305 -7 c2
-14 -20 -16 -33 -2 -4 4 -1 6 7 4 9 -2 14 3 12 12 -2 8 0 11 4 7 4 -4 9 -14
10 -21z m261 7 c0 -9 -4 -10 -14 -2 -7 6 -13 12 -13 14 0 1 6 2 13 2 8 0 14
-6 14 -14z m-1586 -20 c13 -16 12 -17 -3 -4 -10 7 -18 15 -18 17 0 8 8 3 21
-13z m114 -30 c-18 -17 -18 -17 -6 0 11 14 11 20 0 35 -12 16 -12 16 6 0 19
-18 19 -18 0 -35z m1467 22 c2 3 5 -2 5 -10 0 -10 -4 -12 -12 -5 -7 5 -16 6
-21 2 -5 -4 -6 -3 -2 2 4 5 2 16 -4 25 -10 12 -7 12 8 -2 11 -9 23 -15 26 -12z
m-1518 -15 c-6 -6 -10 -3 -10 10 0 13 4 16 10 10 7 -7 7 -13 0 -20z m-83 3
c13 -16 12 -17 -3 -4 -10 7 -18 15 -18 17 0 8 8 3 21 -13z m-56 -74 c1 -38 -1
-69 -4 -69 -4 0 -6 33 -6 74 0 41 2 72 5 70 2 -3 5 -36 5 -75z m-66 46 c5 2
17 -5 27 -18 l19 -22 -22 19 c-13 11 -23 16 -23 11 0 -4 -7 -2 -15 5 -8 7 -15
18 -15 24 0 6 5 3 11 -7 6 -9 14 -15 18 -12z m123 1 c3 3 8 1 12 -4 11 -18
-25 -8 -41 12 -18 21 -18 21 3 3 11 -9 23 -14 26 -11z m1423 16 c-3 -3 0 -11
6 -19 17 -20 5 -16 -14 5 -15 16 -15 19 -2 19 8 0 13 -3 10 -5z m40 0 c-3 -3
3 -15 12 -26 14 -15 14 -18 2 -8 -9 6 -20 8 -25 4 -5 -4 -6 -3 -2 2 4 5 3 14
-2 21 -7 8 -5 12 5 12 8 0 13 -3 10 -5z m40 0 c-3 -3 0 -11 6 -19 17 -20 5
-16 -14 5 -15 16 -15 19 -2 19 8 0 13 -3 10 -5z m51 -4 c3 -4 -1 -5 -10 -4 -8
1 -18 5 -22 8 -3 4 1 5 10 4 8 -1 18 -5 22 -8z m46 -13 c2 3 5 -2 5 -10 0 -19
0 -19 -23 7 -12 14 -13 18 -3 10 9 -6 18 -10 21 -7z m0 -39 c3 3 8 1 12 -4 11
-18 -25 -8 -41 12 -18 21 -18 21 3 3 11 -9 23 -14 26 -11z m114 12 c3 -4 -1
-5 -10 -4 -8 1 -18 5 -22 8 -3 4 1 5 10 4 8 -1 18 -5 22 -8z m-1830 -24 c1 -9
0 -13 -4 -10 -3 4 -7 14 -8 22 -1 9 0 13 4 10 3 -4 7 -14 8 -22z m120 0 c1 -9
0 -13 -4 -10 -3 4 -7 14 -8 22 -1 9 0 13 4 10 3 -4 7 -14 8 -22z m1536 11 c3
3 11 -3 19 -12 12 -16 12 -17 -2 -6 -9 7 -18 11 -21 8 -3 -3 -11 3 -19 12 -12
16 -12 17 2 6 9 -7 18 -11 21 -8z m105 -10 c0 -8 -4 -12 -9 -9 -5 3 -6 10 -3
15 9 13 12 11 12 -6z m-1887 -25 c-6 -11 -13 -20 -16 -20 -2 0 0 9 6 20 6 11
13 20 16 20 2 0 0 -9 -6 -20z m31 7 c-6 -8 -9 -16 -6 -19 3 -3 -3 -11 -12 -19
-16 -13 -17 -12 -4 4 7 9 10 17 6 17 -4 0 -2 7 5 15 7 8 15 15 17 15 3 0 0 -6
-6 -13z m49 8 c0 -1 -10 -10 -22 -21 -14 -12 -18 -13 -10 -3 6 9 10 18 7 21
-3 2 2 5 10 5 8 0 15 -1 15 -2z m163 -18 c4 3 7 4 7 0 0 -17 -20 -14 -36 6
-19 22 -19 22 2 4 11 -9 24 -14 27 -10z m1742 15 c-3 -3 0 -11 6 -19 17 -20 5
-16 -14 5 -15 16 -15 19 -2 19 8 0 13 -3 10 -5z m51 -4 c3 -4 -1 -5 -10 -4 -8
1 -18 5 -22 8 -3 4 1 5 10 4 8 -1 18 -5 22 -8z m-170 -10 c5 4 6 3 2 -2 -4 -5
-3 -14 2 -21 7 -8 5 -12 -5 -12 -8 0 -13 3 -10 5 3 3 -3 15 -12 26 -14 15 -14
18 -2 8 9 -6 20 -8 25 -4z m76 -3 c3 3 11 -3 19 -12 12 -16 12 -17 -2 -6 -9 7
-18 11 -21 8 -3 -3 -11 3 -19 12 -12 16 -12 17 2 6 9 -7 18 -11 21 -8z m-1833
2 c-2 -1 -13 -9 -24 -17 -19 -14 -19 -14 -6 3 7 9 18 17 24 17 6 0 8 -1 6 -3z
m1714 -15 c15 -16 15 -19 2 -19 -8 0 -13 3 -10 5 3 3 0 11 -6 19 -17 20 -5 16
14 -5z m80 0 c15 -16 15 -19 2 -19 -8 0 -13 3 -10 5 3 3 0 11 -6 19 -17 20 -5
16 14 -5z m-1792 -15 c-6 -8 -9 -17 -6 -20 3 -4 2 -5 -2 -2 -3 3 -11 0 -18 -5
-8 -7 -12 -5 -12 5 0 8 4 12 8 10 3 -3 12 2 19 10 7 8 15 15 17 15 3 0 0 -6
-6 -13z m1956 -4 c0 -9 -4 -10 -14 -2 -7 6 -13 12 -13 14 0 1 6 2 13 2 8 0 14
-6 14 -14z m-2020 -8 c0 -8 -3 -13 -5 -10 -3 3 -12 -1 -21 -7 -10 -8 -9 -4 3
10 23 26 23 26 23 7z m1915 0 c2 3 5 -2 5 -10 0 -19 0 -19 -23 7 -12 14 -13
18 -3 10 9 -6 18 -10 21 -7z m60 0 c2 3 5 -2 5 -10 0 -10 -4 -12 -12 -5 -7 5
-14 8 -17 5 -2 -3 -5 2 -5 10 0 10 4 12 12 5 7 -5 14 -8 17 -5z m-1858 -11 c3
-8 2 -12 -4 -9 -6 3 -10 10 -10 16 0 14 7 11 14 -7z m-214 -19 c-5 -7 -9 -14
-7 -16 1 -2 0 -3 -2 -2 -2 2 -9 -2 -16 -7 -8 -7 -12 -5 -12 5 0 7 5 13 11 12
6 -1 10 3 9 9 -1 6 5 11 12 11 10 0 12 -4 5 -12z m50 10 c0 -1 -10 -10 -22
-21 -14 -12 -18 -13 -10 -3 6 9 10 18 7 21 -3 2 2 5 10 5 8 0 15 -1 15 -2z
m1945 -23 c-3 -3 1 -12 8 -21 11 -14 10 -14 -6 -2 -9 8 -15 16 -12 19 3 3 -1
12 -8 21 -11 14 -10 14 6 2 9 -8 15 -16 12 -19z m122 10 c-21 -23 -52 -25 -69
-4 -11 15 -11 15 2 5 18 -14 45 -12 62 5 19 19 23 14 5 -6z m-2027 -7 c-7 -9
-15 -13 -18 -10 -3 3 -12 -1 -21 -8 -14 -11 -14 -10 -2 5 7 10 17 16 21 13 5
-3 11 -1 15 5 3 5 9 10 12 10 3 0 0 -7 -7 -15z m105 5 c3 -6 -1 -7 -9 -4 -18
7 -21 14 -7 14 6 0 13 -4 16 -10z m-74 -13 c-6 -8 -9 -16 -6 -19 3 -2 -2 -5
-10 -5 -13 0 -13 3 2 19 19 21 31 25 14 5z m1912 -5 c15 -16 15 -19 2 -19 -8
0 -13 3 -10 5 3 3 0 11 -6 19 -17 20 -5 16 14 -5z m132 8 c3 -6 -1 -7 -9 -4
-18 7 -21 14 -7 14 6 0 13 -4 16 -10z m-2005 -14 c0 -2 -7 -7 -16 -10 -8 -3
-12 -2 -9 4 6 10 25 14 25 6z m1936 -21 c-1 -8 -5 -17 -8 -21 -5 -4 -4 16 1
34 3 9 9 -1 7 -13z m-2122 -11 c3 -8 2 -12 -4 -9 -6 3 -10 10 -10 16 0 14 7
11 14 -7z m2181 -26 c-1 -31 -24 -88 -25 -61 0 6 4 14 8 17 5 3 8 23 7 45 -1
22 1 38 5 36 3 -2 6 -19 5 -37z m-2103 -3 c3 3 13 -5 24 -17 19 -23 19 -23 -2
-5 -11 9 -23 15 -26 12 -3 -3 -13 5 -24 17 -19 23 -19 23 2 5 11 -9 23 -15 26
-12z m2065 7 c-17 -18 -51 -27 -41 -10 3 5 9 6 14 3 4 -3 13 2 20 10 7 8 15
15 18 15 3 0 -2 -8 -11 -18z m-2145 -7 c2 3 5 -2 5 -10 0 -19 0 -19 -23 7 -12
14 -13 18 -3 10 9 -6 18 -10 21 -7z m129 -2 c13 -16 12 -17 -3 -4 -10 7 -18
15 -18 17 0 8 8 3 21 -13z m2135 -5 c3 -4 -2 -5 -13 -3 -10 1 -27 -5 -38 -14
-20 -16 -20 -16 -2 6 17 20 39 24 53 11z m-2338 -20 c-2 -7 2 -12 9 -13 6 0
14 -3 18 -7 9 -9 -17 -5 -33 5 -7 5 -10 13 -7 18 9 13 15 11 13 -3z m57 -16
c-3 -3 1 -12 8 -21 11 -14 10 -14 -6 -2 -9 8 -15 16 -12 19 3 3 -1 12 -8 21
-11 14 -10 14 6 2 9 -8 15 -16 12 -19z m100 9 c3 -5 2 -12 -3 -15 -5 -3 -9 1
-9 9 0 17 3 19 12 6z m2045 5 c0 -2 -8 -10 -17 -17 -16 -13 -17 -12 -4 4 13
16 21 21 21 13z m116 -16 c0 -12 -4 -16 -9 -11 -5 5 -6 14 -3 20 10 15 12 14
12 -9z m-2203 -10 c10 -12 9 -12 -4 -2 -9 6 -18 9 -21 6 -3 -3 -9 -1 -12 4 -9
15 22 8 37 -8z m2107 6 c0 -2 -8 -10 -17 -17 -16 -13 -17 -12 -4 4 13 16 21
21 21 13z m92 -30 c3 3 8 1 12 -4 11 -18 -25 -8 -41 12 -18 21 -18 21 3 3 11
-9 23 -14 26 -11z m-2266 -8 c12 -14 13 -18 3 -10 -9 6 -18 10 -21 7 -2 -3 -5
2 -5 10 0 19 0 19 23 -7z m83 -2 c9 -11 9 -16 -1 -22 -7 -4 -10 -4 -6 1 4 4 3
14 -3 22 -6 7 -9 13 -6 13 2 0 10 -6 16 -14z m2108 -3 c0 -9 -4 -10 -14 -2 -7
6 -13 12 -13 14 0 1 6 2 13 2 8 0 14 -6 14 -14z m-2133 -12 c4 -5 -3 -7 -14
-4 -23 6 -26 13 -6 13 8 0 17 -4 20 -9z m-107 -16 c0 -8 -3 -13 -5 -10 -3 3
-15 -3 -26 -12 -15 -14 -18 -14 -8 -2 6 9 8 20 4 24 -4 5 -2 5 5 1 6 -3 14 -2
18 4 9 14 12 13 12 -5z m37 -15 c-6 -6 -10 -3 -10 10 0 13 4 16 10 10 7 -7 7
-13 0 -20z m2282 4 c1 -9 0 -13 -4 -10 -3 4 -7 14 -8 22 -1 9 0 13 4 10 3 -4
7 -14 8 -22z m-2379 -9 c0 -8 -10 -23 -21 -32 -21 -18 -21 -18 -2 5 11 12 16
22 12 22 -4 0 -4 5 -1 10 9 14 12 13 12 -5z m168 -4 c-9 -8 -36 -10 -30 -2 2
4 11 8 20 8 8 0 13 -3 10 -6z m2194 -25 c-3 -3 -11 5 -18 17 -13 21 -12 21 5
5 10 -10 16 -20 13 -22z m-2302 9 c0 -8 -3 -13 -5 -10 -3 3 -12 -1 -21 -7 -10
-8 -9 -4 3 10 23 26 23 26 23 7z m63 12 c0 -2 -8 -11 -18 -20 -15 -14 -19 -15
-19 -2 0 8 4 12 8 9 4 -2 10 0 14 6 6 10 15 14 15 7z m2328 -14 c-9 -10 -14
-26 -13 -36 2 -9 0 -15 -5 -12 -15 9 8 65 28 65 3 0 -2 -8 -10 -17z m-2448
-28 c-10 -12 -10 -18 1 -32 12 -17 12 -17 -6 -1 -15 14 -16 20 -5 32 7 9 15
16 17 16 3 0 0 -7 -7 -15z m120 0 c-6 -8 -8 -20 -4 -27 5 -10 4 -10 -6 -1 -11
10 -11 15 0 28 7 8 15 15 17 15 3 0 0 -7 -7 -15z m2364 7 c2 -4 -4 -8 -14 -8
-10 0 -16 4 -14 8 3 4 9 8 14 8 5 0 11 -4 14 -8z m-2428 -22 c0 -12 -4 -16 -9
-11 -5 5 -6 14 -3 20 10 15 12 14 12 -9z m2305 -17 c13 -16 12 -17 -3 -4 -17
13 -22 21 -14 21 2 0 10 -8 17 -17z m124 -2 c-9 -8 -36 -10 -30 -2 2 4 11 8
20 8 8 0 13 -3 10 -6z m45 4 c0 -1 -10 -10 -22 -21 -14 -12 -18 -13 -10 -3 6
9 10 18 7 21 -3 2 2 5 10 5 8 0 15 -1 15 -2z m-2536 -34 c-2 -3 -12 3 -22 13
-16 17 -16 18 5 5 12 -7 20 -15 17 -18z m58 14 c2 3 5 -2 5 -10 0 -19 0 -19
-23 7 -12 14 -13 18 -3 10 9 -6 18 -10 21 -7z m47 2 c8 -10 7 -14 -2 -14 -8 0
-14 6 -14 14 0 7 1 13 2 13 2 0 8 -6 14 -13z m-146 -15 c15 -16 15 -19 2 -19
-8 0 -13 3 -10 5 3 3 0 11 -6 19 -17 20 -5 16 14 -5z m2458 -5 c-10 -9 -11 -8
-5 6 3 10 9 15 12 12 3 -3 0 -11 -7 -18z m-2395 -22 c-1 -8 -5 -17 -8 -21 -5
-4 -4 16 1 34 3 9 9 -1 7 -13z m2484 11 c0 -2 -6 -9 -14 -15 -11 -9 -16 -9
-22 0 -4 7 -3 9 4 5 6 -3 13 -2 17 4 6 10 15 14 15 6z m6 -34 c-17 -16 -18
-16 -5 5 7 12 15 20 18 17 3 -2 -3 -12 -13 -22z m-114 1 c-1 -4 7 -17 16 -28
17 -20 17 -20 -4 -2 -11 9 -21 24 -21 32 0 8 2 13 5 11 2 -2 4 -8 4 -13z
m-2437 -1 c-3 -3 0 -11 6 -19 17 -20 5 -16 -14 5 -15 16 -15 19 -2 19 8 0 13
-3 10 -5z m95 4 c0 -2 -8 -10 -17 -17 -16 -13 -17 -12 -4 4 13 16 21 21 21 13z
m2385 -4 c-3 -3 0 -11 6 -19 17 -20 5 -16 -14 5 -15 16 -15 19 -2 19 8 0 13
-3 10 -5z m40 -10 c-3 -3 -11 0 -18 7 -9 10 -8 11 6 5 10 -3 15 -9 12 -12z
m62 -7 c0 -8 -3 -13 -5 -10 -3 3 -12 -1 -21 -7 -10 -8 -9 -4 3 10 23 26 23 26
23 7z m53 0 c0 -1 -6 -7 -13 -13 -10 -8 -13 -6 -13 7 0 11 6 17 13 14 7 -3 13
-6 13 -8z m-2659 -12 c13 -17 13 -17 -6 -3 -11 8 -22 16 -24 17 -2 2 0 3 6 3
6 0 17 -8 24 -17z m2554 -11 c-3 -3 -11 0 -18 7 -9 10 -8 11 6 5 10 -3 15 -9
12 -12z m-2553 -17 c3 3 13 -5 24 -17 19 -23 19 -23 -2 -5 -11 9 -23 15 -26
12 -3 -3 -13 5 -24 17 -19 23 -19 23 2 5 11 -9 23 -15 26 -12z m99 8 c13 -16
12 -17 -3 -4 -10 7 -18 15 -18 17 0 8 8 3 21 -13z m-53 -18 c-3 -3 -9 2 -12
12 -6 14 -5 15 5 6 7 -7 10 -15 7 -18z m2619 10 c0 -8 -3 -13 -5 -10 -3 3 -10
0 -17 -5 -8 -7 -12 -5 -12 5 0 8 4 12 8 9 4 -2 10 0 14 6 9 14 12 13 12 -5z
m-106 -12 c13 -16 12 -17 -3 -4 -17 13 -22 21 -14 21 2 0 10 -8 17 -17z
m-2481 -7 c0 -2 -8 -10 -17 -17 -16 -13 -17 -12 -4 4 13 16 21 21 21 13z
m-118 -21 c2 3 5 -2 5 -10 0 -19 0 -19 -23 7 -12 14 -13 18 -3 10 9 -6 18 -10
21 -7z m54 -7 c12 -14 13 -18 3 -10 -9 6 -18 10 -21 7 -2 -3 -5 2 -5 10 0 19
0 19 23 -7z m2654 19 c0 -2 -8 -11 -18 -20 -15 -14 -19 -15 -19 -2 0 8 4 12 8
9 4 -2 10 0 14 6 6 10 15 14 15 7z m-2570 -11 c0 -2 -8 -10 -17 -17 -16 -13
-17 -12 -4 4 13 16 21 21 21 13z m2487 -20 c18 -21 18 -21 -3 -3 -11 9 -23 14
-26 11 -3 -3 -8 -1 -12 4 -11 18 25 8 41 -12z m-2625 -21 c2 3 5 -2 5 -10 0
-10 -4 -12 -12 -5 -7 5 -16 6 -21 2 -5 -4 -6 -3 -2 2 4 5 2 16 -4 25 -10 12
-7 12 8 -2 11 -9 23 -15 26 -12z m2706 5 c-7 -10 -14 -17 -17 -15 -4 4 18 35
25 35 2 0 -1 -9 -8 -20z m-2642 -2 c5 4 6 3 2 -2 -4 -5 -2 -16 4 -25 10 -12 7
-12 -8 2 -11 9 -23 15 -26 12 -2 -3 -5 2 -5 10 0 10 4 12 12 5 7 -5 16 -6 21
-2z m2559 -26 c-3 -3 3 -15 12 -26 18 -21 18 -21 -5 -2 -12 11 -20 21 -17 24
3 3 -3 15 -12 26 -18 21 -18 21 5 2 12 -11 20 -21 17 -24z m115 24 c0 -2 -8
-10 -17 -17 -16 -13 -17 -12 -4 4 13 16 21 21 21 13z m-2785 -26 c3 -6 -1 -7
-9 -4 -18 7 -21 14 -7 14 6 0 13 -4 16 -10z m160 0 c-3 -5 -12 -10 -18 -10 -7
0 -6 4 3 10 19 12 23 12 15 0z m2481 -2 c3 -4 -1 -5 -10 -4 -8 1 -18 5 -22 8
-3 4 1 5 10 4 8 -1 18 -5 22 -8z m80 0 c3 -4 -1 -5 -10 -4 -8 1 -18 5 -22 8
-3 4 1 5 10 4 8 -1 18 -5 22 -8z m-2674 -13 c2 3 5 -2 5 -10 0 -19 0 -19 -23
7 -12 14 -13 18 -3 10 9 -6 18 -10 21 -7z m54 -7 c12 -14 13 -18 3 -10 -9 6
-18 10 -21 7 -2 -3 -5 2 -5 10 0 19 0 19 23 -7z m2655 -1 c-6 -8 -9 -16 -6
-19 3 -2 -2 -5 -10 -5 -13 0 -13 3 2 19 19 21 31 25 14 5z m-2730 -24 c13 -16
12 -17 -3 -4 -10 7 -18 15 -18 17 0 8 8 3 21 -13z m2769 13 c0 -2 -7 -7 -16
-10 -8 -3 -12 -2 -9 4 6 10 25 14 25 6z m-2706 -36 c-6 -6 -10 -3 -10 10 0 13
4 16 10 10 7 -7 7 -13 0 -20z m-117 5 c0 -8 -4 -12 -9 -9 -5 3 -6 10 -3 15 9
13 12 11 12 -6z m74 -8 c-10 -9 -11 -8 -5 6 3 10 9 15 12 12 3 -3 0 -11 -7
-18z m67 -17 c-7 -10 -14 -17 -17 -15 -4 4 18 35 25 35 2 0 -1 -9 -8 -20z
m2557 12 c-3 -3 0 -11 6 -19 17 -20 5 -16 -14 5 -15 16 -15 19 -2 19 8 0 13
-3 10 -5z m40 0 c-3 -3 3 -15 12 -26 14 -15 14 -18 2 -8 -9 6 -20 8 -25 4 -5
-4 -6 -3 -2 2 4 5 3 14 -2 21 -7 8 -5 12 5 12 8 0 13 -3 10 -5z m43 -9 c-12
-15 -22 -18 -14 -4 4 5 0 11 -6 14 -7 3 -3 4 9 4 17 -1 19 -4 11 -14z m36 8
c3 -4 -4 -17 -17 -27 -22 -19 -22 -19 -4 2 9 11 14 24 10 27 -3 4 -4 7 0 7 3
0 8 -4 11 -9z m-2754 -35 c0 -2 -7 -7 -16 -10 -8 -3 -12 -2 -9 4 6 10 25 14
25 6z m74 -35 c-2 -3 -12 3 -22 13 -16 17 -16 18 5 5 12 -7 20 -15 17 -18z
m2601 17 c5 4 5 1 1 -6 -6 -10 -11 -10 -22 -1 -8 6 -14 14 -14 16 0 3 6 0 13
-6 8 -6 18 -7 22 -3z m-2729 -10 c3 -4 -1 -5 -10 -4 -8 1 -18 5 -22 8 -3 4 1
5 10 4 8 -1 18 -5 22 -8z m2745 -11 c-10 -9 -11 -8 -5 6 3 10 9 15 12 12 3 -3
0 -11 -7 -18z m-2650 -4 c13 -16 12 -17 -3 -4 -10 7 -18 15 -18 17 0 8 8 3 21
-13z m2724 -2 c-9 -8 -36 -10 -30 -2 2 4 11 8 20 8 8 0 13 -3 10 -6z m-2809
-13 c5 4 6 3 2 -2 -4 -5 -3 -14 2 -21 7 -8 5 -12 -5 -12 -8 0 -13 3 -10 5 3 3
-3 15 -12 26 -14 15 -14 18 -2 8 9 -6 20 -8 25 -4z m65 -5 c13 -16 12 -17 -3
-4 -17 13 -22 21 -14 21 2 0 10 -8 17 -17z m2699 14 c0 -2 -8 -11 -18 -20 -15
-14 -19 -15 -19 -2 0 8 4 12 8 9 4 -2 10 0 14 6 6 10 15 14 15 7z m-2727 -25
c15 -16 15 -19 2 -19 -8 0 -13 3 -10 5 3 3 0 11 -6 19 -17 20 -5 16 14 -5z
m2652 -12 c3 -6 -1 -7 -9 -4 -18 7 -21 14 -7 14 6 0 13 -4 16 -10z m85 6 c0
-2 -8 -10 -17 -17 -16 -13 -17 -12 -4 4 13 16 21 21 21 13z m-2692 -31 c-3 -3
-9 2 -12 12 -6 14 -5 15 5 6 7 -7 10 -15 7 -18z m-43 -13 c-3 -3 0 -11 6 -19
17 -20 5 -16 -14 5 -15 16 -15 19 -2 19 8 0 13 -3 10 -5z m2737 -16 c3 3 8 1
12 -4 11 -18 -25 -8 -41 12 -18 21 -18 21 3 3 11 -9 23 -14 26 -11z m-2802 -1
c-7 -8 -17 -15 -23 -15 -6 0 -2 7 9 15 25 19 30 19 14 0z m35 -24 c-9 -8 -36
-10 -30 -2 2 4 11 8 20 8 8 0 13 -3 10 -6z m56 -18 c13 -16 12 -17 -3 -4 -10
7 -18 15 -18 17 0 8 8 3 21 -13z m-21 -18 c14 -19 14 -19 -2 -6 -10 7 -18 18
-18 24 0 6 1 8 3 6 1 -2 9 -13 17 -24z m-70 2 c0 -2 -10 -12 -22 -23 l-23 -19
19 23 c18 21 26 27 26 19z m2755 -6 c-9 -8 -36 -10 -30 -2 2 4 11 8 20 8 8 0
13 -3 10 -6z m-2699 -23 c12 -14 13 -18 3 -10 -9 6 -18 10 -21 7 -2 -3 -5 2
-5 10 0 19 0 19 23 -7z m2814 -20 c0 -4 -5 -8 -12 -8 -6 0 -8 3 -5 7 4 3 -1
16 -10 27 -18 21 -18 21 5 2 12 -11 22 -23 22 -28z m-69 15 c13 -17 13 -17 -6
-3 -11 8 -22 16 -24 17 -2 2 0 3 6 3 6 0 17 -8 24 -17z m-2696 -11 c-3 -3 0
-11 6 -19 17 -20 5 -16 -14 5 -15 16 -15 19 -2 19 8 0 13 -3 10 -5z m-79 -24
c4 -7 4 -10 -1 -6 -4 4 -15 2 -24 -5 -14 -11 -14 -10 -2 6 16 20 18 21 27 5z
m30 -16 c-17 -16 -18 -16 -5 5 7 12 15 20 18 17 3 -2 -3 -12 -13 -22z m2814
14 c0 -2 -8 -10 -17 -17 -16 -13 -17 -12 -4 4 13 16 21 21 21 13z m-2783 -31
c0 -8 -3 -13 -5 -10 -3 3 -12 -1 -21 -7 -10 -8 -9 -4 3 10 23 26 23 26 23 7z
m2707 -6 c-10 -12 -18 -24 -17 -28 1 -3 0 -8 -2 -9 -2 -2 -3 3 -1 11 2 16 25
47 34 47 3 0 -3 -9 -14 -21z m93 6 c0 -8 -3 -13 -5 -10 -3 3 -12 -1 -21 -7
-10 -8 -9 -4 3 10 23 26 23 26 23 7z m-2896 -8 c-6 -8 -9 -16 -6 -19 3 -2 -2
-5 -10 -5 -13 0 -13 3 2 19 19 21 31 25 14 5z m44 -16 c-9 -8 -36 -10 -30 -2
2 4 11 8 20 8 8 0 13 -3 10 -6z m2720 0 c-9 -8 -36 -10 -30 -2 2 4 11 8 20 8
8 0 13 -3 10 -6z m80 0 c-9 -8 -36 -10 -30 -2 2 4 11 8 20 8 8 0 13 -3 10 -6z
m-2749 -21 c0 -12 -4 -16 -9 -11 -5 5 -6 14 -3 20 10 15 12 14 12 -9z m2797 5
c-3 -9 -8 -14 -10 -11 -3 3 -2 9 2 15 9 16 15 13 8 -4z m-2758 -4 c3 -5 2 -12
-3 -15 -5 -3 -9 1 -9 9 0 17 3 19 12 6z m-140 -19 c-3 -3 0 -11 6 -19 17 -20
5 -16 -14 5 -15 16 -15 19 -2 19 8 0 13 -3 10 -5z m40 -10 c-3 -3 -11 0 -18 7
-9 10 -8 11 6 5 10 -3 15 -9 12 -12z m40 -2 c4 -6 10 -8 14 -6 4 3 8 -1 8 -9
0 -12 -4 -12 -21 2 -12 10 -23 19 -25 20 -2 2 1 3 7 3 6 0 14 -5 17 -10z
m2785 6 c0 -2 -6 -9 -14 -15 -11 -9 -16 -9 -22 0 -4 7 -3 9 4 5 6 -3 13 -2 17
4 6 10 15 14 15 6z m17 -29 c0 -8 -6 -14 -14 -14 -9 0 -10 4 -2 14 6 7 12 13
14 13 1 0 2 -6 2 -13z m-2802 -25 c-3 -3 1 -12 8 -21 11 -14 10 -14 -6 -2 -9
8 -15 16 -12 19 3 3 -1 12 -8 21 -11 14 -10 14 6 2 9 -8 15 -16 12 -19z m2760
10 c-3 -3 -11 0 -18 7 -9 10 -8 11 6 5 10 -3 15 -9 12 -12z m-2858 -7 c0 -8
-4 -12 -9 -9 -5 3 -6 10 -3 15 9 13 12 11 12 -6z m2760 0 c0 -8 -4 -12 -9 -9
-5 3 -6 10 -3 15 9 13 12 11 12 -6z m59 3 c5 4 6 3 2 -2 -4 -5 -2 -16 4 -25
10 -12 7 -12 -8 2 -11 9 -23 15 -26 12 -2 -3 -5 2 -5 10 0 10 4 12 12 5 7 -5
16 -6 21 -2z m-2786 -21 c0 -2 -10 -12 -22 -23 l-23 -19 19 23 c18 21 26 27
26 19z m115 -7 c-3 -5 -12 -10 -18 -10 -7 0 -6 4 3 10 19 12 23 12 15 0z m-59
-22 c12 -14 13 -18 3 -10 -9 6 -18 10 -21 7 -2 -3 -5 2 -5 10 0 19 0 19 23 -7z
m2720 0 c12 -14 13 -18 3 -10 -9 6 -18 10 -21 7 -2 -3 -5 2 -5 10 0 19 0 19
23 -7z m-2636 8 c0 -2 -8 -10 -17 -17 -16 -13 -17 -12 -4 4 13 16 21 21 21 13z
m2690 -30 c-7 -7 -13 -7 -20 0 -6 6 -3 10 10 10 13 0 16 -4 10 -10z m-2784
-22 c1 -9 0 -13 -4 -10 -3 4 -7 14 -8 22 -1 9 0 13 4 10 3 -4 7 -14 8 -22z
m2680 11 c-1 -8 -5 -17 -8 -21 -5 -4 -4 16 1 34 3 9 9 -1 7 -13z m40 -10 c1
-9 -4 -11 -14 -7 -10 4 -12 7 -4 10 7 2 9 9 5 15 -3 7 -2 8 2 4 5 -4 10 -14
11 -22z m-2631 6 c-3 -2 -16 -6 -28 -8 -15 -2 -18 0 -9 5 14 9 45 12 37 3z
m2725 5 c0 -2 -8 -10 -17 -17 -16 -13 -17 -12 -4 4 13 16 21 21 21 13z m-2834
-38 c5 4 6 3 2 -2 -4 -5 -3 -14 2 -21 7 -8 5 -12 -5 -12 -8 0 -13 3 -10 5 3 3
-3 15 -12 26 -14 15 -14 18 -2 8 9 -6 20 -8 25 -4z m65 -5 c13 -16 12 -17 -3
-4 -10 7 -18 15 -18 17 0 8 8 3 21 -13z m2720 0 c13 -16 12 -17 -3 -4 -10 7
-18 15 -18 17 0 8 8 3 21 -13z m-2822 -16 c12 -15 12 -17 -3 -11 -9 3 -16 13
-16 22 0 8 1 13 3 11 1 -2 9 -12 16 -22z m74 5 c15 -16 15 -19 2 -19 -8 0 -13
3 -10 5 3 3 0 11 -6 19 -17 20 -5 16 14 -5z m2647 3 c-5 -7 -9 -14 -7 -16 1
-2 0 -3 -2 -1 -11 7 -7 29 5 29 9 0 11 -4 4 -12z m73 -3 c15 -16 15 -19 2 -19
-8 0 -13 3 -10 5 3 3 0 11 -6 19 -17 20 -5 16 14 -5z m-2668 -12 c-3 -5 -12
-10 -18 -10 -7 0 -6 4 3 10 19 12 23 12 15 0z m2639 2 c2 -4 -4 -8 -14 -8 -10
0 -16 4 -14 8 3 4 9 8 14 8 5 0 11 -4 14 -8z m81 -2 c-3 -5 -12 -10 -18 -10
-7 0 -6 4 3 10 19 12 23 12 15 0z m10 -30 c3 -6 -1 -7 -9 -4 -18 7 -21 14 -7
14 6 0 13 -4 16 -10z m-2780 -8 c-3 -3 0 -11 6 -19 17 -20 5 -16 -14 5 -15 16
-15 19 -2 19 8 0 13 -3 10 -5z m45 -6 c-7 -7 -13 -7 -20 0 -6 6 -3 10 10 10
13 0 16 -4 10 -10z m2684 -17 c-10 -12 -18 -24 -17 -28 1 -3 0 -8 -2 -9 -2 -2
-3 3 -1 11 2 16 25 47 34 47 3 0 -3 -9 -14 -21z m-2753 -6 c13 -16 12 -17 -3
-4 -10 7 -18 15 -18 17 0 8 8 3 21 -13z m108 14 c-2 -1 -13 -9 -24 -17 -19
-14 -19 -14 -6 3 7 9 18 17 24 17 6 0 8 -1 6 -3z m2556 -15 c-3 -3 -11 0 -18
7 -9 10 -8 11 6 5 10 -3 15 -9 12 -12z m50 -11 c-9 -8 -36 -10 -30 -2 2 4 11
8 20 8 8 0 13 -3 10 -6z m79 1 c2 -4 -4 -8 -14 -8 -10 0 -16 4 -14 8 3 4 9 8
14 8 5 0 11 -4 14 -8z m-2743 -19 c13 -16 12 -17 -3 -4 -10 7 -18 15 -18 17 0
8 8 3 21 -13z m-24 -17 c18 -21 18 -21 -3 -3 -11 9 -23 14 -26 11 -3 -3 -8 -1
-12 4 -11 18 25 8 41 -12z m48 -6 c-3 -5 -12 -10 -18 -10 -7 0 -6 4 3 10 19
12 23 12 15 0z m45 5 c0 -2 -6 -8 -13 -14 -10 -8 -14 -7 -14 2 0 8 6 14 14 14
7 0 13 -1 13 -2z m-104 -27 c12 -14 13 -18 3 -10 -9 6 -18 10 -21 7 -2 -3 -5
2 -5 10 0 19 0 19 23 -7z m2609 12 c3 -5 1 -10 -4 -10 -6 0 -11 5 -11 10 0 6
2 10 4 10 3 0 8 -4 11 -10z m-2485 -4 c0 -2 -8 -10 -17 -17 -16 -13 -17 -12
-4 4 13 16 21 21 21 13z m-55 -16 c3 -6 -1 -7 -9 -4 -18 7 -21 14 -7 14 6 0
13 -4 16 -10z m-24 -17 c13 -16 12 -17 -3 -4 -10 7 -18 15 -18 17 0 8 8 3 21
-13z m90 4 c-6 -8 -9 -16 -6 -19 3 -3 -3 -11 -12 -19 -16 -13 -17 -12 -4 4 7
9 10 17 6 17 -4 0 -2 7 5 15 7 8 15 15 17 15 3 0 0 -6 -6 -13z m2480 0 c-6 -8
-8 -16 -5 -20 3 -3 -1 -4 -10 -3 -8 1 -19 6 -23 11 -4 4 -3 5 3 2 7 -4 17 0
24 8 7 8 15 15 17 15 3 0 0 -6 -6 -13z m-2627 -27 c-6 -6 -10 -3 -10 10 0 13
4 16 10 10 7 -7 7 -13 0 -20z m2766 26 c0 -2 -8 -10 -17 -17 -16 -13 -17 -12
-4 4 13 16 21 21 21 13z m-2689 -29 c-10 -9 -11 -8 -5 6 3 10 9 15 12 12 3 -3
0 -11 -7 -18z m2601 12 c2 -2 1 -3 -1 -1 -2 1 -14 -6 -25 -15 -15 -14 -18 -14
-8 -2 6 9 9 18 6 22 -3 3 1 4 10 3 8 -1 17 -4 18 -7z m-2642 -12 c0 -2 -9 -12
-19 -21 -14 -13 -21 -14 -27 -5 -4 7 -3 10 3 6 6 -4 16 0 23 8 12 14 20 19 20
12z m120 -22 c-7 -8 -17 -15 -23 -15 -6 0 -2 7 9 15 25 19 30 19 14 0z m2527
0 c0 -8 -3 -13 -5 -10 -3 3 -12 -1 -21 -7 -10 -8 -9 -4 3 10 23 26 23 26 23 7z
m-86 -12 c13 -16 12 -17 -3 -4 -17 13 -22 21 -14 21 2 0 10 -8 17 -17z m-2475
-39 c1 -9 0 -13 -4 -10 -3 4 -7 14 -8 22 -1 9 0 13 4 10 3 -4 7 -14 8 -22z
m2560 11 c-1 -8 -5 -17 -8 -21 -5 -4 -4 16 1 34 3 9 9 -1 7 -13z m-2616 1 c0
-2 -7 -7 -16 -10 -8 -3 -12 -2 -9 4 6 10 25 14 25 6z m52 -41 c3 3 13 -5 24
-17 19 -23 19 -23 -2 -5 -11 9 -23 15 -26 12 -3 -3 -13 5 -24 17 -19 23 -19
23 2 5 11 -9 23 -15 26 -12z m2466 6 c-7 -9 -13 -18 -15 -20 -1 -2 -1 5 0 16
0 11 7 20 14 20 10 0 10 -4 1 -16z m-2541 -4 c0 -8 -6 -14 -14 -14 -9 0 -10 4
-2 14 6 7 12 13 14 13 1 0 2 -6 2 -13z m124 -4 c13 -16 12 -17 -3 -4 -17 13
-22 21 -14 21 2 0 10 -8 17 -17z m2469 2 c-7 -9 -15 -13 -18 -10 -3 3 -12 -1
-21 -8 -14 -11 -14 -10 -2 5 7 10 17 16 21 13 5 -3 11 -1 15 5 3 5 9 10 12 10
3 0 0 -7 -7 -15z m87 1 c0 -8 -3 -15 -6 -14 -19 2 -24 -4 -11 -12 12 -7 10 -9
-7 -7 -15 1 -19 5 -13 13 6 6 6 15 2 19 -4 5 -2 5 5 1 6 -3 14 -2 18 4 8 14
12 13 12 -4z m-2507 0 c0 -2 -8 -10 -17 -17 -16 -13 -17 -12 -4 4 13 16 21 21
21 13z m2451 -9 c-6 -8 -9 -16 -6 -19 3 -2 -2 -5 -10 -5 -13 0 -13 3 2 19 19
21 31 25 14 5z m-2545 -43 c1 -9 0 -13 -4 -10 -3 4 -7 14 -8 22 -1 9 0 13 4
10 3 -4 7 -14 8 -22z m2501 11 c0 -8 -3 -13 -5 -10 -3 3 -10 0 -17 -5 -8 -7
-12 -5 -12 5 0 8 4 12 8 9 4 -2 10 0 14 6 9 14 12 13 12 -5z m-2560 -2 c-4 -3
-2 -11 3 -18 7 -8 5 -12 -4 -12 -8 0 -12 7 -11 16 5 22 4 21 12 21 3 0 3 -3 0
-7z m163 -17 c0 -2 -7 -7 -16 -10 -8 -3 -12 -2 -9 4 6 10 25 14 25 6z m-108
-21 c2 3 5 -2 5 -10 0 -19 0 -19 -23 7 -12 14 -13 18 -3 10 9 -6 18 -10 21 -7z
m68 12 c0 -2 -8 -11 -18 -20 -15 -14 -19 -15 -19 -2 0 8 4 12 8 9 4 -2 10 0
14 6 6 10 15 14 15 7z m2405 -17 c10 -11 16 -20 13 -20 -3 0 -13 9 -23 20 -10
11 -16 20 -13 20 3 0 13 -9 23 -20z m82 2 c-10 -10 -15 -21 -12 -24 3 -3 -5
-13 -17 -24 l-23 -19 19 23 c11 12 15 22 11 22 -4 0 0 9 10 20 10 11 20 20 23
20 3 0 -2 -8 -11 -18z m-2436 -9 c12 -16 12 -17 -2 -6 -9 7 -20 9 -24 5 -5 -4
-5 -1 -1 6 9 16 11 15 27 -5z m-140 -20 c13 -16 12 -17 -3 -4 -17 13 -22 21
-14 21 2 0 10 -8 17 -17z m84 -15 c-1 -13 5 -32 14 -43 16 -20 16 -20 -5 -2
-17 14 -25 46 -15 65 4 9 7 -1 6 -20z m99 -4 c3 -8 2 -12 -4 -9 -6 3 -10 10
-10 16 0 14 7 11 14 -7z m2331 5 c3 -3 -13 -5 -35 -4 -22 1 -43 4 -46 7 -3 3
13 5 35 4 22 -1 43 -4 46 -7z m-2459 -21 c3 -4 -1 -5 -10 -4 -8 1 -18 5 -22 8
-3 4 1 5 10 4 8 -1 18 -5 22 -8z m80 0 c3 -4 -1 -5 -10 -4 -8 1 -18 5 -22 8
-3 4 1 5 10 4 8 -1 18 -5 22 -8z m46 -13 c2 3 5 -2 5 -10 0 -19 0 -19 -23 7
-12 14 -13 18 -3 10 9 -6 18 -10 21 -7z m2305 -30 c0 -8 -4 -12 -9 -9 -5 4 -7
9 -4 12 3 3 -2 15 -11 26 -18 21 -18 21 3 3 11 -9 21 -24 21 -32z m83 31 c0
-3 -4 -8 -10 -11 -5 -3 -10 -1 -10 4 0 6 5 11 10 11 6 0 10 -2 10 -4z m-119
-23 c13 -16 12 -17 -3 -4 -10 7 -18 15 -18 17 0 8 8 3 21 -13z m-2290 -10 c13
-16 12 -17 -3 -4 -10 7 -18 15 -18 17 0 8 8 3 21 -13z m2263 -23 c-6 -6 -10
-3 -10 10 0 13 4 16 10 10 7 -7 7 -13 0 -20z m-58 -30 c-1 -27 -4 -51 -7 -54
-3 -3 -4 16 -3 42 2 56 3 62 8 62 1 0 2 -22 2 -50z m-2281 22 c-3 -3 0 -11 6
-19 17 -20 5 -16 -14 5 -15 16 -15 19 -2 19 8 0 13 -3 10 -5z m45 2 c0 -8 -19
-13 -24 -6 -3 5 1 9 9 9 8 0 15 -2 15 -3z m37 -12 c-9 -10 -26 -18 -39 -19
-17 -2 -19 0 -8 7 8 5 17 7 21 4 4 -2 12 3 19 11 7 8 15 15 18 15 3 0 -2 -8
-11 -18z m89 6 c3 -4 -1 -5 -10 -4 -8 1 -18 5 -22 8 -3 4 1 5 10 4 8 -1 18 -5
22 -8z m2079 3 c-9 -8 -36 -10 -30 -2 2 4 11 8 20 8 8 0 13 -3 10 -6z m110
-11 c-10 -11 -20 -18 -23 -15 -3 3 -15 -3 -26 -12 -21 -18 -21 -18 -2 4 10 13
22 20 26 18 4 -3 13 2 20 10 7 8 15 15 18 15 3 0 -3 -9 -13 -20z m44 -3 c-2
-1 -13 -9 -24 -17 -19 -14 -19 -14 -6 3 7 9 18 17 24 17 6 0 8 -1 6 -3z
m-2380 -40 c8 -10 7 -14 -2 -14 -8 0 -14 6 -14 14 0 7 1 13 2 13 2 0 8 -6 14
-13z m2197 -2 c-1 -8 -5 -17 -8 -21 -5 -4 -4 16 1 34 3 9 9 -1 7 -13z m120 0
c-1 -8 -5 -17 -8 -21 -5 -4 -4 16 1 34 3 9 9 -1 7 -13z m-2259 -20 c0 -8 -10
-23 -21 -32 -21 -18 -21 -18 -2 5 11 12 16 22 12 22 -4 0 -4 5 -1 10 9 14 12
13 12 -5z m-32 -5 c-3 -5 -12 -10 -18 -10 -7 0 -6 4 3 10 19 12 23 12 15 0z
m80 1 c-9 -8 -36 -10 -30 -2 2 4 11 8 20 8 8 0 13 -3 10 -6z m75 -5 c-7 -7
-13 -7 -20 0 -6 6 -3 10 10 10 13 0 16 -4 10 -10z m2037 -4 c-17 -18 -51 -27
-41 -10 3 5 9 6 14 3 4 -3 13 2 20 10 7 8 15 15 18 15 3 0 -2 -8 -11 -18z
m124 5 c-6 -8 -7 -18 -3 -22 4 -5 1 -5 -6 -1 -10 6 -10 11 -1 22 6 8 14 14 16
14 3 0 0 -6 -6 -13z m-55 -19 c12 -14 13 -18 3 -10 -9 6 -18 10 -21 7 -2 -3
-5 2 -5 10 0 19 0 19 23 -7z m-2147 9 c-2 -1 -13 -9 -24 -17 -19 -14 -19 -14
-6 3 7 9 18 17 24 17 6 0 8 -1 6 -3z m58 -46 c-1 -15 -4 -17 -14 -9 -15 12
-17 22 -3 13 6 -3 10 -1 10 4 0 6 2 11 4 11 3 0 4 -9 3 -19z m1920 6 c0 -8 -6
-14 -14 -14 -9 0 -10 4 -2 14 6 7 12 13 14 13 1 0 2 -6 2 -13z m83 9 c0 -2 -8
-10 -17 -17 -16 -13 -17 -12 -4 4 13 16 21 21 21 13z m-2116 -15 c-8 -8 -34
-10 -38 -2 -3 4 6 7 19 7 14 0 22 -2 19 -5z m176 -16 c14 -19 14 -19 -2 -6
-10 7 -18 18 -18 24 0 6 1 8 3 6 1 -2 9 -13 17 -24z m2055 7 c-3 -3 -11 0 -18
7 -9 10 -8 11 6 5 10 -3 15 -9 12 -12z m-95 4 c0 -2 -8 -10 -17 -17 -16 -13
-17 -12 -4 4 13 16 21 21 21 13z m-2085 -14 c-3 -3 0 -11 6 -19 17 -20 5 -16
-14 5 -15 16 -15 19 -2 19 8 0 13 -3 10 -5z m40 -20 c-3 -3 1 -12 8 -21 11
-14 10 -14 -6 -2 -9 8 -15 16 -12 19 3 3 -1 12 -8 21 -11 14 -10 14 6 2 9 -8
15 -16 12 -19z m66 1 c13 -16 12 -17 -3 -4 -17 13 -22 21 -14 21 2 0 10 -8 17
-17z m1869 2 c-7 -8 -17 -15 -23 -15 -6 0 -2 7 9 15 25 19 30 19 14 0z m127 2
c0 -8 -6 -14 -14 -14 -9 0 -10 4 -2 14 6 7 12 13 14 13 1 0 2 -6 2 -13z
m-2126 -14 c13 -16 12 -17 -3 -4 -17 13 -22 21 -14 21 2 0 10 -8 17 -17z m102
-1 c15 -16 15 -19 2 -19 -8 0 -13 3 -10 5 3 3 0 11 -6 19 -17 20 -5 16 14 -5z
m1928 5 c-6 -8 -9 -16 -6 -19 3 -2 -2 -5 -10 -5 -13 0 -13 3 2 19 19 21 31 25
14 5z m-117 -15 c3 -5 -1 -9 -9 -9 -8 0 -12 4 -9 9 3 4 7 8 9 8 2 0 6 -4 9 -8z
m156 4 c0 -2 -7 -7 -16 -10 -8 -3 -12 -2 -9 4 6 10 25 14 25 6z m53 -16 c4 6
5 6 3 -1 -1 -7 -10 -13 -20 -15 -10 -1 -15 0 -12 3 3 4 0 13 -6 22 -9 11 -6
10 9 -2 13 -12 23 -14 26 -7z m-2072 -7 c13 -16 12 -17 -3 -4 -17 13 -22 21
-14 21 2 0 10 -8 17 -17z m115 -9 c1 -9 0 -13 -4 -10 -3 4 -7 14 -8 22 -1 9 0
13 4 10 3 -4 7 -14 8 -22z m1814 12 c-7 -7 -13 -7 -20 0 -6 6 -3 10 10 10 13
0 16 -4 10 -10z m-1955 -16 c13 -14 13 -17 1 -17 -8 0 -15 3 -14 6 2 18 -3 24
-11 13 -7 -11 -9 -11 -14 0 -7 20 20 18 38 -2z m50 -10 c-3 -5 -12 -10 -18
-10 -7 0 -6 4 3 10 19 12 23 12 15 0z m45 5 c0 -1 -10 -10 -22 -21 -14 -12
-18 -13 -10 -3 6 9 10 18 7 21 -3 2 2 5 10 5 8 0 15 -1 15 -2z m154 -3 c2 -4
-4 -8 -14 -8 -10 0 -16 4 -14 8 3 4 9 8 14 8 5 0 11 -4 14 -8z m1721 -1 c-9
-8 -36 -10 -30 -2 2 4 11 8 20 8 8 0 13 -3 10 -6z m45 4 c0 -1 -10 -10 -22
-21 -14 -12 -18 -13 -10 -3 6 9 10 18 7 21 -3 2 2 5 10 5 8 0 15 -1 15 -2z
m35 -5 c3 -6 -1 -7 -9 -4 -18 7 -21 14 -7 14 6 0 13 -4 16 -10z m-125 -3 c0
-2 -8 -11 -18 -20 -15 -14 -19 -15 -19 -2 0 8 4 12 8 9 4 -2 10 0 14 6 6 10
15 14 15 7z m-1762 -31 c16 -20 16 -20 -2 -6 -24 19 -47 21 -66 7 -13 -10 -13
-10 -2 5 17 22 48 19 70 -6z m1678 2 c19 -23 19 -23 -2 -5 -11 9 -24 14 -29
10 -4 -5 -5 -2 -1 5 9 16 10 16 32 -10z m194 18 c0 -2 -8 -10 -17 -17 -16 -13
-17 -12 -4 4 13 16 21 21 21 13z m-1790 -20 c0 -2 -7 -7 -16 -10 -8 -3 -12 -2
-9 4 6 10 25 14 25 6z m35 -15 c-1 -9 3 -23 9 -31 10 -13 9 -13 -7 -1 -9 8
-15 16 -12 19 3 3 0 10 -5 17 -7 8 -5 12 4 12 8 0 13 -7 11 -16z m1640 -1
c-10 -11 -20 -18 -23 -15 -3 3 -15 -3 -26 -12 -21 -18 -21 -18 -2 4 10 13 22
20 26 18 4 -3 13 2 20 10 7 8 15 15 18 15 3 0 -3 -9 -13 -20z m-1858 -5 c0 -8
-4 -12 -9 -9 -5 3 -6 10 -3 15 9 13 12 11 12 -6z m94 -12 c17 -20 18 -23 3
-10 -11 9 -23 15 -26 12 -2 -3 -5 2 -5 10 0 19 -1 20 28 -12z m1663 -3 c-6 -6
-10 -3 -10 10 0 13 4 16 10 10 7 -7 7 -13 0 -20z m-68 -8 c-17 -16 -18 -16 -5
5 7 12 15 20 18 17 3 -2 -3 -12 -13 -22z m214 3 c14 -19 14 -19 -2 -6 -10 7
-18 18 -18 24 0 6 1 8 3 6 1 -2 9 -13 17 -24z m-1814 -27 c12 -14 13 -18 3
-10 -9 6 -18 10 -21 7 -2 -3 -5 2 -5 10 0 19 0 19 23 -7z m128 -7 c-2 -3 -12
3 -22 13 -16 17 -16 18 5 5 12 -7 20 -15 17 -18z m1503 14 c0 -8 -3 -13 -5
-10 -3 3 -12 -1 -21 -7 -10 -8 -9 -4 3 10 23 26 23 26 23 7z m63 12 c0 -2 -8
-11 -18 -20 -15 -14 -19 -15 -19 -2 0 8 4 12 8 9 4 -2 10 0 14 6 6 10 15 14
15 7z m48 -14 c-9 -10 -14 -26 -13 -35 2 -9 -4 -23 -13 -30 -13 -11 -14 -11
-7 2 6 8 10 22 10 31 0 16 22 49 33 49 3 0 -2 -8 -10 -17z m-1655 -11 c15 -16
15 -19 2 -19 -8 0 -13 3 -10 5 3 3 0 11 -6 19 -17 20 -5 16 14 -5z m1446 -5
c8 -10 7 -14 -2 -14 -8 0 -14 6 -14 14 0 7 1 13 2 13 2 0 8 -6 14 -13z m244 0
c3 -7 -3 -13 -14 -13 -13 0 -15 3 -7 13 6 7 12 13 13 13 2 0 5 -6 8 -13z
m-1717 -9 c3 -4 -1 -5 -10 -4 -8 1 -18 5 -22 8 -3 4 1 5 10 4 8 -1 18 -5 22
-8z m1519 2 c-3 -5 -12 -10 -18 -10 -7 0 -6 4 3 10 19 12 23 12 15 0z m116 -3
c-6 -8 -9 -17 -6 -20 3 -4 2 -5 -2 -2 -3 3 -11 0 -18 -5 -8 -7 -12 -5 -12 5 0
8 4 12 8 10 3 -3 12 2 19 10 7 8 15 15 17 15 3 0 0 -6 -6 -13z m-1545 -12 c-1
-8 -5 -17 -8 -21 -5 -4 -4 16 1 34 3 9 9 -1 7 -13z m1480 -5 c0 -12 -4 -16 -9
-11 -5 5 -6 14 -3 20 10 15 12 14 12 -9z m-1331 0 c3 -6 -1 -7 -9 -4 -18 7
-21 14 -7 14 6 0 13 -4 16 -10z m1297 -22 c-8 -8 -9 -4 -5 13 4 13 8 18 11 10
2 -7 -1 -18 -6 -23z m-1425 -6 c-17 -18 -51 -27 -41 -10 3 5 9 6 14 3 4 -3 13
2 20 10 7 8 15 15 18 15 3 0 -2 -8 -11 -18z m1358 10 c-3 -3 0 -11 6 -19 17
-20 5 -16 -14 5 -15 16 -15 19 -2 19 8 0 13 -3 10 -5z m40 -10 c-3 -3 -11 0
-18 7 -9 10 -8 11 6 5 10 -3 15 -9 12 -12z m-1475 -34 c0 -4 -5 -8 -12 -8 -6
0 -8 3 -5 7 4 3 -1 16 -10 27 -18 21 -18 21 5 2 12 -11 22 -23 22 -28z m160
39 c0 -2 -8 -11 -18 -20 -15 -14 -19 -15 -19 -2 0 8 4 12 8 9 4 -2 10 0 14 6
6 10 15 14 15 7z m58 -22 c-3 -3 -9 2 -12 12 -6 14 -5 15 5 6 7 -7 10 -15 7
-18z m1174 10 c3 3 11 -3 19 -12 12 -16 12 -17 -2 -6 -9 7 -18 11 -21 8 -3 -3
-11 3 -19 12 -12 16 -12 17 2 6 9 -7 18 -11 21 -8z m205 0 c0 -8 -3 -13 -5
-10 -3 3 -10 0 -17 -5 -8 -7 -12 -5 -12 5 0 8 4 12 8 9 4 -2 10 0 14 6 9 14
12 13 12 -5z m-244 -13 c15 -16 15 -19 2 -19 -8 0 -13 3 -10 5 3 3 0 11 -6 19
-17 20 -5 16 14 -5z m184 1 c0 -9 -4 -10 -14 -2 -7 6 -13 12 -13 14 0 1 6 2
13 2 8 0 14 -6 14 -14z m-1367 -7 c0 -2 -8 -10 -17 -17 -16 -13 -17 -12 -4 4
13 16 21 21 21 13z m1341 -13 c13 -16 12 -17 -3 -4 -17 13 -22 21 -14 21 2 0
10 -8 17 -17z m-1295 -8 c-1 -8 -5 -17 -8 -21 -5 -4 -4 16 1 34 3 9 9 -1 7
-13z m59 3 c5 4 5 1 1 -6 -6 -10 -11 -10 -22 -1 -8 6 -14 14 -14 16 0 3 6 0
13 -6 8 -6 18 -7 22 -3z m1137 -3 c2 3 5 -2 5 -10 0 -19 0 -19 -23 7 -12 14
-13 18 -3 10 9 -6 18 -10 21 -7z m-1278 -11 c3 -8 2 -12 -4 -9 -6 3 -10 10
-10 16 0 14 7 11 14 -7z m1077 -1 c13 -16 12 -17 -3 -4 -17 13 -22 21 -14 21
2 0 10 -8 17 -17z m93 8 c-7 -8 -74 -9 -69 -1 2 3 19 6 39 6 19 0 33 -3 30 -5z
m-1019 -21 c-3 -5 -12 -10 -18 -10 -7 0 -6 4 3 10 19 12 23 12 15 0z m45 5 c0
-1 -10 -10 -22 -21 -14 -12 -18 -13 -10 -3 6 9 10 18 7 21 -3 2 2 5 10 5 8 0
15 -1 15 -2z m30 -10 c-5 -7 -9 -14 -7 -16 1 -2 0 -3 -2 -2 -2 2 -11 -3 -20
-9 -12 -10 -12 -7 2 8 9 11 15 23 12 26 -3 2 2 5 10 5 10 0 12 -4 5 -12z m50
10 c0 -1 -10 -10 -22 -21 -14 -12 -18 -13 -10 -3 6 9 10 18 7 21 -3 2 2 5 10
5 8 0 15 -1 15 -2z m40 0 c0 -1 -12 -12 -27 -26 -20 -17 -23 -18 -10 -3 9 11
15 23 12 26 -3 2 2 5 10 5 8 0 15 -1 15 -2z m905 -3 c-3 -3 0 -11 6 -19 17
-20 5 -16 -14 5 -15 16 -15 19 -2 19 8 0 13 -3 10 -5z m40 -20 c-3 -3 1 -12 8
-21 11 -14 10 -14 -6 -2 -9 8 -15 16 -12 19 3 3 -1 12 -8 21 -11 14 -10 14 6
2 9 -8 15 -16 12 -19z m-1146 15 c-2 -1 -13 -10 -25 -20 -17 -14 -21 -14 -21
-2 0 8 4 12 8 9 4 -2 10 0 14 6 3 5 11 10 17 10 6 0 9 -1 7 -3z m827 -17 c0
-12 -4 -16 -9 -11 -5 5 -6 14 -3 20 10 15 12 14 12 -9z m211 2 c-10 -10 -15
-21 -12 -24 3 -3 -5 -13 -17 -24 l-23 -19 19 23 c11 12 15 22 11 22 -4 0 0 9
10 20 10 11 20 20 23 20 3 0 -2 -8 -11 -18z m-1130 -16 c18 -21 18 -21 -3 -3
-11 9 -23 14 -26 11 -3 -3 -8 -1 -12 4 -11 18 25 8 41 -12z m980 7 c0 -9 -4
-10 -14 -2 -7 6 -13 12 -13 14 0 1 6 2 13 2 8 0 14 -6 14 -14z m49 -11 c-17
-16 -18 -16 -5 5 7 12 15 20 18 17 3 -2 -3 -12 -13 -22z m145 11 c13 -16 12
-17 -3 -4 -17 13 -22 21 -14 21 2 0 10 -8 17 -17z m102 -1 c15 -16 15 -19 2
-19 -8 0 -13 3 -10 5 3 3 0 11 -6 19 -17 20 -5 16 14 -5z m-837 -17 c0 -14 -4
-25 -8 -25 -6 0 -5 25 1 48 3 10 7 -2 7 -23z m44 21 c0 -2 -8 -10 -17 -17 -16
-13 -17 -12 -4 4 13 16 21 21 21 13z m-390 -10 c0 -2 -8 -10 -17 -17 -16 -13
-17 -12 -4 4 13 16 21 21 21 13z m869 -30 c-3 -3 -11 5 -18 17 -13 21 -12 21
5 5 10 -10 16 -20 13 -22z m-819 20 c0 -3 -14 -11 -30 -20 -17 -8 -28 -10 -24
-5 3 6 16 14 28 19 26 11 26 11 26 6z m76 -11 c-1 -8 -5 -17 -8 -21 -5 -4 -4
16 1 34 3 9 9 -1 7 -13z m280 0 c-1 -8 -5 -17 -8 -21 -5 -4 -4 16 1 34 3 9 9
-1 7 -13z m124 11 c0 -2 -8 -10 -17 -17 -16 -13 -17 -12 -4 4 13 16 21 21 21
13z m36 -22 c1 -9 0 -13 -4 -10 -3 4 -7 14 -8 22 -1 9 0 13 4 10 3 -4 7 -14 8
-22z m85 9 c13 -16 12 -17 -3 -4 -17 13 -22 21 -14 21 2 0 10 -8 17 -17z m306
-1 c-10 -10 -15 -21 -12 -24 3 -3 -5 -13 -17 -24 l-23 -19 19 23 c11 12 15 22
11 22 -4 0 0 9 10 20 10 11 20 20 23 20 3 0 -2 -8 -11 -18z m187 -11 c-2 -3
-12 3 -22 13 -16 17 -16 18 5 5 12 -7 20 -15 17 -18z m-1180 3 c3 -8 2 -12 -4
-9 -6 3 -10 10 -10 16 0 14 7 11 14 -7z m120 0 c3 -8 2 -12 -4 -9 -6 3 -10 10
-10 16 0 14 7 11 14 -7z m543 -8 c18 -21 18 -21 -3 -3 -11 9 -23 14 -26 11 -3
-3 -8 -1 -12 4 -11 18 25 8 41 -12z m214 7 c13 -16 12 -17 -3 -4 -17 13 -22
21 -14 21 2 0 10 -8 17 -17z m240 -6 c-10 -9 -11 -8 -5 6 3 10 9 15 12 12 3
-3 0 -11 -7 -18z m-374 -2 c0 -8 -10 -23 -21 -32 -21 -18 -21 -18 -2 5 11 12
16 22 12 22 -4 0 -4 5 -1 10 9 14 12 13 12 -5z m-242 -3 c-3 -3 0 -11 6 -19
17 -20 5 -16 -14 5 -15 16 -15 19 -2 19 8 0 13 -3 10 -5z m46 -10 c-7 -2 -18
1 -23 6 -8 8 -4 9 13 5 13 -4 18 -8 10 -11z m164 8 c-3 -5 -12 -10 -18 -10 -7
0 -6 4 3 10 19 12 23 12 15 0z m80 1 c-9 -8 -36 -10 -30 -2 2 4 11 8 20 8 8 0
13 -3 10 -6z m70 -9 c-3 -3 -11 0 -18 7 -9 10 -8 11 6 5 10 -3 15 -9 12 -12z
m90 9 c-9 -8 -36 -10 -30 -2 2 4 11 8 20 8 8 0 13 -3 10 -6z m112 -9 c-17 -18
-51 -27 -41 -10 3 5 9 6 14 3 4 -3 13 2 20 10 7 8 15 15 18 15 3 0 -2 -8 -11
-18z m-945 -7 c2 3 5 -2 5 -10 0 -10 -4 -12 -12 -5 -7 5 -14 8 -17 5 -2 -3 -5
2 -5 10 0 10 4 12 12 5 7 -5 14 -8 17 -5z m145 -30 c0 -8 -4 -12 -9 -9 -5 4
-7 9 -4 12 3 3 -2 15 -11 26 -18 21 -18 21 3 3 11 -9 21 -24 21 -32z m335 30
c2 3 5 -2 5 -10 0 -19 0 -19 -23 7 -12 14 -13 18 -3 10 9 -6 18 -10 21 -7z
m47 1 c9 -10 8 -15 -2 -19 -8 -3 -13 3 -13 14 0 23 0 23 15 5z m501 10 c0 -2
-6 -9 -14 -15 -11 -9 -16 -9 -22 0 -4 7 -3 9 4 5 6 -3 13 -2 17 4 6 10 15 14
15 6z m-803 -30 c18 -21 18 -21 -3 -3 -11 9 -23 14 -26 11 -3 -3 -8 -1 -12 4
-11 18 25 8 41 -12z m74 7 c12 -16 12 -17 -2 -6 -9 7 -20 9 -24 5 -5 -4 -5 -1
-1 6 9 16 11 15 27 -5z m60 0 c13 -17 13 -17 -6 -3 -11 8 -22 16 -24 17 -2 2
0 3 6 3 6 0 17 -8 24 -17z m360 0 c13 -17 13 -17 -6 -3 -11 8 -22 16 -24 17
-2 2 0 3 6 3 6 0 17 -8 24 -17z m40 -6 c-10 -9 -11 -8 -5 6 3 10 9 15 12 12 3
-3 0 -11 -7 -18z m-650 -4 c13 -16 12 -17 -3 -4 -10 7 -18 15 -18 17 0 8 8 3
21 -13z m251 -18 c2 3 5 -2 5 -10 0 -10 -4 -12 -12 -5 -7 5 -16 6 -21 2 -5 -4
-6 -3 -2 2 4 5 2 16 -4 25 -10 12 -7 12 8 -2 11 -9 23 -15 26 -12z m99 8 c13
-16 12 -17 -3 -4 -17 13 -22 21 -14 21 2 0 10 -8 17 -17z m90 4 c-6 -8 -9 -17
-6 -20 3 -4 2 -5 -2 -2 -3 3 -11 0 -18 -5 -8 -7 -12 -5 -12 5 0 8 4 12 8 10 3
-3 12 2 19 10 7 8 15 15 17 15 3 0 0 -6 -6 -13z m-467 -27 c-6 -6 -10 -3 -10
10 0 13 4 16 10 10 7 -7 7 -13 0 -20z m122 4 c1 -9 0 -13 -4 -10 -3 4 -7 14
-8 22 -1 9 0 13 4 10 3 -4 7 -14 8 -22z m100 14 c5 4 6 3 2 -2 -4 -5 -2 -16 4
-25 10 -12 7 -12 -8 2 -11 9 -23 15 -26 12 -2 -3 -5 2 -5 10 0 10 4 12 12 5 7
-5 16 -6 21 -2z m135 -15 c13 -16 12 -17 -3 -4 -17 13 -22 21 -14 21 2 0 10
-8 17 -17z m-260 -20 c13 -16 12 -17 -3 -4 -17 13 -22 21 -14 21 2 0 10 -8 17
-17z m414 8 c-9 -8 -36 -10 -30 -2 2 4 11 8 20 8 8 0 13 -3 10 -6z m45 4 c0
-1 -10 -10 -22 -21 -14 -12 -18 -13 -10 -3 6 9 10 18 7 21 -3 2 2 5 10 5 8 0
15 -1 15 -2z m67 -18 c1 -11 1 -18 0 -16 -2 2 -8 11 -15 20 -9 12 -9 16 1 16
7 0 14 -9 14 -20z m40 6 c0 -9 -4 -10 -14 -2 -7 6 -13 12 -13 14 0 1 6 2 13 2
8 0 14 -6 14 -14z m83 11 c0 -8 -19 -13 -24 -6 -3 5 1 9 9 9 8 0 15 -2 15 -3z
m-541 -17 c8 -10 7 -14 -2 -14 -8 0 -14 6 -14 14 0 7 1 13 2 13 2 0 8 -6 14
-13z m57 -13 c1 -9 0 -13 -4 -10 -3 4 -7 14 -8 22 -1 9 0 13 4 10 3 -4 7 -14
8 -22z m204 23 c0 -2 -8 -11 -18 -20 -15 -14 -19 -15 -19 -2 0 8 4 12 8 9 4
-2 10 0 14 6 6 10 15 14 15 7z m-169 -24 c13 -16 12 -17 -3 -4 -17 13 -22 21
-14 21 2 0 10 -8 17 -17z m86 -7 c18 -21 18 -21 -3 -3 -11 9 -23 14 -26 11 -3
-3 -8 -1 -12 4 -11 18 25 8 41 -12z"/>
<path d="M2030 2149 c-63 -22 -126 -44 -139 -50 l-25 -10 32 -30 c36 -34 37
-35 20 -53 -7 -8 -40 -44 -73 -81 -33 -37 -74 -83 -92 -102 l-31 -35 -89 42
c-148 71 -150 72 -165 56 -7 -7 -45 -48 -85 -92 -39 -43 -82 -91 -95 -105 -12
-14 -40 -46 -62 -70 -41 -47 -181 -202 -206 -229 -82 -87 -80 -83 -80 -188 l1
-97 62 67 c34 36 81 88 104 115 23 26 60 68 83 93 22 25 67 74 98 109 66 75
133 149 188 208 l39 41 60 -28 c194 -91 179 -89 226 -36 15 17 37 43 50 57 20
22 97 109 161 181 18 21 28 19 65 -15 13 -11 26 -17 30 -14 7 8 62 260 63 290
0 22 -5 22 -140 -24z"/>
<path d="M785 2090 c-2 -3 -4 -300 -3 -658 0 -452 4 -655 11 -659 6 -4 305 -7
664 -7 l653 -1 0 53 0 52 -610 0 -610 0 -2 612 -3 612 -48 1 c-27 1 -50 -2
-52 -5z"/>
<path d="M1995 1827 c-5 -7 -29 -34 -53 -60 l-42 -47 2 -397 3 -398 58 -2 57
-1 0 459 c0 252 -3 459 -7 459 -5 -1 -12 -6 -18 -13z"/>
<path d="M1520 1603 c-2 -429 1 -668 8 -675 5 -5 31 -8 58 -6 l49 3 3 351 2
351 -27 13 c-16 7 -43 19 -60 26 l-33 14 0 -77z"/>
<path d="M1795 1600 c-16 -17 -35 -28 -42 -25 -46 19 -43 40 -41 -316 l3 -334
58 -3 57 -3 0 356 c0 195 -1 355 -3 355 -2 0 -16 -14 -32 -30z"/>
<path d="M1417 1568 c-8 -13 -33 -41 -54 -63 l-38 -40 1 -250 c1 -137 2 -260
3 -272 1 -19 6 -21 59 -20 l57 2 0 333 c0 182 -2 332 -6 332 -4 0 -14 -10 -22
-22z"/>
<path d="M1189 1312 l-56 -65 1 -161 1 -161 60 0 60 0 0 218 c0 121 -2 222 -5
226 -3 4 -30 -22 -61 -57z"/>
<path d="M996 1097 c-56 -61 -57 -63 -54 -117 l3 -55 58 -2 57 -1 1 46 c2 127
1 183 -3 187 -3 3 -30 -23 -62 -58z"/>
</g>
</svg>
